<svg id="mol14" xmlns="http://www.w3.org/2000/svg" version="1.1" width="320px" height="240px" viewBox="0 0 320 240" role="img"><title>(1S,2S,4R,8S,9S,11S,12S,13R)-11-hydroxy-8-(2-hydroxyacetyl)-9,13-dimethyl-6-propyl-5,7-dioxapentacyclo[10.8.0.02,9.04,8.013,18]icosa-14,17-dien-16-one</title>
  <style> #mol14 text {font-family: sans-serif;} #mol14 { pointer-events:none; } #mol14 .event  { pointer-events:all; } #mol14 line { stroke-linecap:round; } #mol14 polygon { stroke-linejoin:round; } </style>
  <text x="110.76" y="221.02" stroke="none" font-size="12" fill="rgb(160,0,0)">unknown chirality</text>
  <text x="203.23" y="68.16" stroke="none" font-size="9" fill="rgb(160,0,0)">?</text>
  <text x="180.8" y="55.04" stroke="none" font-size="14" fill="rgb(255,13,13)">O</text>
  <text x="163.64" y="76.26" stroke="none" font-size="9" fill="rgb(160,0,0)">R</text>
  <text x="159.73" y="65.8" stroke="none" font-size="9" fill="rgb(160,0,0)">abs</text>
  <text x="138.08" y="105.2" stroke="none" font-size="9" fill="rgb(160,0,0)">S</text>
  <text x="142.28" y="97.05" stroke="none" font-size="9" fill="rgb(160,0,0)">abs</text>
  <text x="118.61" y="119.35" stroke="none" font-size="9" fill="rgb(160,0,0)">S</text>
  <text x="116.7" y="108.08" stroke="none" font-size="9" fill="rgb(160,0,0)">abs</text>
  <text x="43.79" y="196.54" stroke="none" font-size="14" fill="rgb(255,13,13)">O</text>
  <text x="101.15" y="157.43" stroke="none" font-size="9" fill="rgb(160,0,0)">R</text>
  <text x="99.74" y="146.17" stroke="none" font-size="9" fill="rgb(160,0,0)">abs</text>
  <text x="121.12" y="143.28" stroke="none" font-size="9" fill="rgb(160,0,0)">S</text>
  <text x="124.97" y="134.58" stroke="none" font-size="9" fill="rgb(160,0,0)">abs</text>
  <text x="143.11" y="153.07" stroke="none" font-size="9" fill="rgb(160,0,0)">S</text>
  <text x="141.2" y="141.81" stroke="none" font-size="9" fill="rgb(160,0,0)">abs</text>
  <text x="160.06" y="114.99" stroke="none" font-size="9" fill="rgb(160,0,0)">S</text>
  <text x="157.5" y="103.83" stroke="none" font-size="9" fill="rgb(160,0,0)">abs</text>
  <text x="176.17" y="97.1" stroke="none" font-size="9" fill="rgb(160,0,0)">S</text>
  <text x="177.48" y="86.35" stroke="none" font-size="9" fill="rgb(160,0,0)">abs</text>
  <text x="200.27" y="88.77" stroke="none" font-size="14" fill="rgb(255,13,13)">O</text>
  <text x="176.73" y="135.46" stroke="none" font-size="14" fill="rgb(255,13,13)">O</text>
  <text x="224.86" y="135.46" stroke="none" font-size="14" fill="rgb(255,13,13)">O</text>
  <text x="235.76" y="135.46" stroke="none" font-size="14" fill="rgb(255,13,13)">H</text>
  <text x="146.18" y="173.68" stroke="none" font-size="14" fill="rgb(255,13,13)">O</text>
  <text x="157.07" y="173.68" stroke="none" font-size="14" fill="rgb(255,13,13)">H</text>
  <line x1="85.67" y1="139.64" x2="66.19" y2="153.79" stroke="currentColor" stroke-width="1.44" />
  <line x1="85.71" y1="144.06" x2="70.38" y2="155.2" stroke="currentColor" stroke-width="1.44" />
  <line x1="68.49" y1="175.66" x2="54.63" y2="185.73" stroke="currentColor" stroke-width="1.44" />
  <line x1="70.61" y1="178.57" x2="56.74" y2="188.64" stroke="currentColor" stroke-width="1.44" />
  <line x1="90.7" y1="187.51" x2="110.17" y2="173.37" stroke="currentColor" stroke-width="1.44" />
  <line x1="90.65" y1="183.1" x2="105.98" y2="171.96" stroke="currentColor" stroke-width="1.44" />
  <line x1="194.3" y1="107.57" x2="184.93" y2="122.85" stroke="currentColor" stroke-width="1.44" />
  <line x1="197.46" y1="109.3" x2="188" y2="124.73" stroke="currentColor" stroke-width="1.44" />
  <line x1="270.76" y1="48.13" x2="249.92" y2="60.16" stroke="currentColor" stroke-width="1.44" />
  <line x1="249.92" y1="60.16" x2="229.07" y2="48.13" stroke="currentColor" stroke-width="1.44" />
  <line x1="229.07" y1="48.13" x2="208.23" y2="60.16" stroke="currentColor" stroke-width="1.44" />
  <line x1="208.23" y1="60.16" x2="192.69" y2="53.24" stroke="currentColor" stroke-width="1.44" />
  <polygon points="170,68 176,63 174,62 " fill="rgb(160,0,0)" stroke="rgb(160,0,0)" stroke-width="1.44" />
  <polygon points="174,62 176,63 181,58 179,56 " fill="rgb(160,0,0)" stroke="rgb(160,0,0)" stroke-width="1.44" />
  <line x1="170.14" y1="68.26" x2="146.6" y2="73.26" stroke="currentColor" stroke-width="1.44" />
  <line x1="144.75" y1="94.42" x2="144" y2="94.34" stroke="rgb(160,0,0)" stroke-width="1.44" />
  <line x1="145.42" y1="91.65" x2="143.92" y2="91.49" stroke="rgb(160,0,0)" stroke-width="1.44" />
  <line x1="146.09" y1="88.87" x2="143.85" y2="88.63" stroke="rgb(160,0,0)" stroke-width="1.44" />
  <line x1="146.76" y1="86.09" x2="143.77" y2="85.78" stroke="rgb(160,0,0)" stroke-width="1.44" />
  <line x1="147.43" y1="83.32" x2="143.69" y2="82.92" stroke="rgb(160,0,0)" stroke-width="1.44" />
  <line x1="148.1" y1="80.54" x2="143.61" y2="80.07" stroke="rgb(160,0,0)" stroke-width="1.44" />
  <line x1="148.77" y1="77.76" x2="143.53" y2="77.21" stroke="rgb(160,0,0)" stroke-width="1.44" />
  <line x1="149.44" y1="74.99" x2="143.46" y2="74.36" stroke="rgb(160,0,0)" stroke-width="1.44" />
  <line x1="144.08" y1="97.2" x2="124.61" y2="111.35" stroke="currentColor" stroke-width="1.44" />
  <polygon points="125,111 114,105 113,108 " fill="rgb(160,0,0)" stroke="rgb(160,0,0)" stroke-width="1.44" />
  <polygon points="113,108 114,105 104,99 102,104 " fill="rgb(160,0,0)" stroke="rgb(160,0,0)" stroke-width="1.44" />
  <line x1="102.62" y1="101.56" x2="83.15" y2="115.7" stroke="currentColor" stroke-width="1.44" />
  <line x1="83.15" y1="115.7" x2="85.67" y2="139.64" stroke="currentColor" stroke-width="1.44" />
  <line x1="66.19" y1="153.79" x2="68.71" y2="177.72" stroke="currentColor" stroke-width="1.44" />
  <line x1="68.71" y1="177.72" x2="90.7" y2="187.51" stroke="currentColor" stroke-width="1.44" />
  <line x1="110.17" y1="173.37" x2="107.65" y2="149.43" stroke="currentColor" stroke-width="1.44" />
  <line x1="85.67" y1="139.64" x2="107.65" y2="149.43" stroke="currentColor" stroke-width="1.44" />
  <line x1="107.65" y1="149.43" x2="127.12" y2="135.28" stroke="currentColor" stroke-width="1.44" />
  <line x1="127.2" y1="132.43" x2="126.45" y2="132.51" stroke="rgb(160,0,0)" stroke-width="1.44" />
  <line x1="127.28" y1="129.57" x2="125.78" y2="129.73" stroke="rgb(160,0,0)" stroke-width="1.44" />
  <line x1="127.36" y1="126.72" x2="125.11" y2="126.95" stroke="rgb(160,0,0)" stroke-width="1.44" />
  <line x1="127.44" y1="123.86" x2="124.44" y2="124.18" stroke="rgb(160,0,0)" stroke-width="1.44" />
  <line x1="127.51" y1="121.01" x2="123.77" y2="121.4" stroke="rgb(160,0,0)" stroke-width="1.44" />
  <line x1="127.59" y1="118.15" x2="123.1" y2="118.62" stroke="rgb(160,0,0)" stroke-width="1.44" />
  <line x1="127.67" y1="115.3" x2="122.43" y2="115.85" stroke="rgb(160,0,0)" stroke-width="1.44" />
  <line x1="127.75" y1="112.44" x2="121.76" y2="113.07" stroke="rgb(160,0,0)" stroke-width="1.44" />
  <line x1="127.12" y1="135.28" x2="149.11" y2="145.07" stroke="currentColor" stroke-width="1.44" />
  <line x1="149.11" y1="145.07" x2="168.58" y2="130.93" stroke="currentColor" stroke-width="1.44" />
  <line x1="168.58" y1="130.93" x2="166.07" y2="106.99" stroke="currentColor" stroke-width="1.44" />
  <line x1="144.08" y1="97.2" x2="166.07" y2="106.99" stroke="currentColor" stroke-width="1.44" />
  <line x1="166.07" y1="106.99" x2="182.17" y2="89.1" stroke="currentColor" stroke-width="1.44" />
  <line x1="170.14" y1="68.26" x2="182.17" y2="89.1" stroke="currentColor" stroke-width="1.44" />
  <line x1="182.17" y1="89.1" x2="199.27" y2="85.47" stroke="currentColor" stroke-width="1.44" />
  <line x1="208.23" y1="60.16" x2="206.45" y2="77.1" stroke="currentColor" stroke-width="1.44" />
  <line x1="183.41" y1="91.68" x2="184.04" y2="91.27" stroke="rgb(160,0,0)" stroke-width="1.44" />
  <line x1="184.65" y1="94.25" x2="185.91" y2="93.43" stroke="rgb(160,0,0)" stroke-width="1.44" />
  <line x1="185.89" y1="96.83" x2="187.78" y2="95.59" stroke="rgb(160,0,0)" stroke-width="1.44" />
  <line x1="187.13" y1="99.4" x2="189.65" y2="97.75" stroke="rgb(160,0,0)" stroke-width="1.44" />
  <line x1="188.37" y1="101.98" x2="191.52" y2="99.91" stroke="rgb(160,0,0)" stroke-width="1.44" />
  <line x1="189.61" y1="104.55" x2="193.39" y2="102.08" stroke="rgb(160,0,0)" stroke-width="1.44" />
  <line x1="190.85" y1="107.13" x2="195.26" y2="104.24" stroke="rgb(160,0,0)" stroke-width="1.44" />
  <line x1="192.09" y1="109.71" x2="197.13" y2="106.4" stroke="rgb(160,0,0)" stroke-width="1.44" />
  <line x1="195.39" y1="109.24" x2="218.28" y2="109.95" stroke="currentColor" stroke-width="1.44" />
  <line x1="218.28" y1="109.95" x2="226.27" y2="123.79" stroke="currentColor" stroke-width="1.44" />
  <line x1="168.32" y1="108.22" x2="168.56" y2="107.58" stroke="rgb(160,0,0)" stroke-width="1.44" />
  <line x1="170.58" y1="109.44" x2="171.06" y2="108.18" stroke="rgb(160,0,0)" stroke-width="1.44" />
  <line x1="172.83" y1="110.67" x2="173.55" y2="108.77" stroke="rgb(160,0,0)" stroke-width="1.44" />
  <line x1="175.08" y1="111.89" x2="176.05" y2="109.37" stroke="rgb(160,0,0)" stroke-width="1.44" />
  <line x1="177.34" y1="113.12" x2="178.55" y2="109.96" stroke="rgb(160,0,0)" stroke-width="1.44" />
  <line x1="179.59" y1="114.34" x2="181.04" y2="110.56" stroke="rgb(160,0,0)" stroke-width="1.44" />
  <line x1="181.84" y1="115.57" x2="183.54" y2="111.15" stroke="rgb(160,0,0)" stroke-width="1.44" />
  <line x1="184.1" y1="116.8" x2="186.03" y2="111.75" stroke="rgb(160,0,0)" stroke-width="1.44" />
  <line x1="149.03" y1="147.93" x2="149.78" y2="147.85" stroke="rgb(160,0,0)" stroke-width="1.44" />
  <line x1="148.96" y1="150.78" x2="150.45" y2="150.63" stroke="rgb(160,0,0)" stroke-width="1.44" />
  <line x1="148.88" y1="153.64" x2="151.12" y2="153.4" stroke="rgb(160,0,0)" stroke-width="1.44" />
  <line x1="148.8" y1="156.49" x2="151.79" y2="156.18" stroke="rgb(160,0,0)" stroke-width="1.44" />
  <line x1="148.72" y1="159.35" x2="152.46" y2="158.96" stroke="rgb(160,0,0)" stroke-width="1.44" />
  <line x1="150.51" y1="162.01" x2="153.13" y2="161.73" stroke="rgb(160,0,0)" stroke-width="1.44" />
  <line x1="110.09" y1="150.93" x2="110.39" y2="150.24" stroke="rgb(160,0,0)" stroke-width="1.44" />
  <line x1="112.52" y1="152.42" x2="113.13" y2="151.05" stroke="rgb(160,0,0)" stroke-width="1.44" />
  <line x1="114.95" y1="153.92" x2="115.87" y2="151.85" stroke="rgb(160,0,0)" stroke-width="1.44" />
  <line x1="117.39" y1="155.41" x2="118.61" y2="152.66" stroke="rgb(160,0,0)" stroke-width="1.44" />
  <line x1="119.82" y1="156.91" x2="121.35" y2="153.47" stroke="rgb(160,0,0)" stroke-width="1.44" />
  <line x1="122.26" y1="158.4" x2="124.09" y2="154.28" stroke="rgb(160,0,0)" stroke-width="1.44" />
  <line x1="124.69" y1="159.9" x2="126.83" y2="155.09" stroke="rgb(160,0,0)" stroke-width="1.44" />
  <line x1="127.12" y1="161.39" x2="129.57" y2="155.9" stroke="rgb(160,0,0)" stroke-width="1.44" />
  <line id="mol14:Bond:11" class="event" x1="85.67" y1="139.64" x2="66.19" y2="153.79" stroke-width="8" opacity="0" />
  <line id="mol14:Bond:13" class="event" x1="68.71" y1="177.72" x2="49.24" y2="191.87" stroke-width="8" opacity="0" />
  <line id="mol14:Bond:15" class="event" x1="90.7" y1="187.51" x2="110.17" y2="173.37" stroke-width="8" opacity="0" />
  <line id="mol14:Bond:29" class="event" x1="195.39" y1="109.24" x2="182.17" y2="130.79" stroke-width="8" opacity="0" />
  <line id="mol14:Bond:0" class="event" x1="270.76" y1="48.13" x2="249.92" y2="60.16" stroke-width="8" opacity="0" />
  <line id="mol14:Bond:1" class="event" x1="249.92" y1="60.16" x2="229.07" y2="48.13" stroke-width="8" opacity="0" />
  <line id="mol14:Bond:2" class="event" x1="229.07" y1="48.13" x2="208.23" y2="60.16" stroke-width="8" opacity="0" />
  <line id="mol14:Bond:3" class="event" x1="208.23" y1="60.16" x2="186.24" y2="50.37" stroke-width="8" opacity="0" />
  <line id="mol14:Bond:4" class="event" x1="170.14" y1="68.26" x2="186.24" y2="50.37" stroke-width="8" opacity="0" />
  <line id="mol14:Bond:5" class="event" x1="170.14" y1="68.26" x2="146.6" y2="73.26" stroke-width="8" opacity="0" />
  <line id="mol14:Bond:6" class="event" x1="144.08" y1="97.2" x2="146.6" y2="73.26" stroke-width="8" opacity="0" />
  <line id="mol14:Bond:7" class="event" x1="144.08" y1="97.2" x2="124.61" y2="111.35" stroke-width="8" opacity="0" />
  <line id="mol14:Bond:8" class="event" x1="124.61" y1="111.35" x2="102.62" y2="101.56" stroke-width="8" opacity="0" />
  <line id="mol14:Bond:9" class="event" x1="102.62" y1="101.56" x2="83.15" y2="115.7" stroke-width="8" opacity="0" />
  <line id="mol14:Bond:10" class="event" x1="83.15" y1="115.7" x2="85.67" y2="139.64" stroke-width="8" opacity="0" />
  <line id="mol14:Bond:12" class="event" x1="66.19" y1="153.79" x2="68.71" y2="177.72" stroke-width="8" opacity="0" />
  <line id="mol14:Bond:14" class="event" x1="68.71" y1="177.72" x2="90.7" y2="187.51" stroke-width="8" opacity="0" />
  <line id="mol14:Bond:16" class="event" x1="110.17" y1="173.37" x2="107.65" y2="149.43" stroke-width="8" opacity="0" />
  <line id="mol14:Bond:17" class="event" x1="85.67" y1="139.64" x2="107.65" y2="149.43" stroke-width="8" opacity="0" />
  <line id="mol14:Bond:18" class="event" x1="107.65" y1="149.43" x2="127.12" y2="135.28" stroke-width="8" opacity="0" />
  <line id="mol14:Bond:19" class="event" x1="127.12" y1="135.28" x2="124.61" y2="111.35" stroke-width="8" opacity="0" />
  <line id="mol14:Bond:20" class="event" x1="127.12" y1="135.28" x2="149.11" y2="145.07" stroke-width="8" opacity="0" />
  <line id="mol14:Bond:21" class="event" x1="149.11" y1="145.07" x2="168.58" y2="130.93" stroke-width="8" opacity="0" />
  <line id="mol14:Bond:22" class="event" x1="168.58" y1="130.93" x2="166.07" y2="106.99" stroke-width="8" opacity="0" />
  <line id="mol14:Bond:23" class="event" x1="144.08" y1="97.2" x2="166.07" y2="106.99" stroke-width="8" opacity="0" />
  <line id="mol14:Bond:24" class="event" x1="166.07" y1="106.99" x2="182.17" y2="89.1" stroke-width="8" opacity="0" />
  <line id="mol14:Bond:25" class="event" x1="170.14" y1="68.26" x2="182.17" y2="89.1" stroke-width="8" opacity="0" />
  <line id="mol14:Bond:26" class="event" x1="182.17" y1="89.1" x2="205.72" y2="84.1" stroke-width="8" opacity="0" />
  <line id="mol14:Bond:27" class="event" x1="208.23" y1="60.16" x2="205.72" y2="84.1" stroke-width="8" opacity="0" />
  <line id="mol14:Bond:28" class="event" x1="182.17" y1="89.1" x2="195.39" y2="109.24" stroke-width="8" opacity="0" />
  <line id="mol14:Bond:30" class="event" x1="195.39" y1="109.24" x2="218.28" y2="109.95" stroke-width="8" opacity="0" />
  <line id="mol14:Bond:31" class="event" x1="218.28" y1="109.95" x2="230.31" y2="130.79" stroke-width="8" opacity="0" />
  <line id="mol14:Bond:32" class="event" x1="166.07" y1="106.99" x2="186.25" y2="114.73" stroke-width="8" opacity="0" />
  <line id="mol14:Bond:33" class="event" x1="149.11" y1="145.07" x2="151.63" y2="169.01" stroke-width="8" opacity="0" />
  <line id="mol14:Bond:34" class="event" x1="107.65" y1="149.43" x2="129.64" y2="159.22" stroke-width="8" opacity="0" />
  <circle id="mol14:Atom:0" class="event" cx="270.76" cy="48.13" r="8" opacity="0" />
  <circle id="mol14:Atom:1" class="event" cx="249.92" cy="60.16" r="8" opacity="0" />
  <circle id="mol14:Atom:2" class="event" cx="229.07" cy="48.13" r="8" opacity="0" />
  <circle id="mol14:Atom:3" class="event" cx="208.23" cy="60.16" r="8" opacity="0" />
  <circle id="mol14:Atom:4" class="event" cx="186.24" cy="50.37" r="8" opacity="0" />
  <circle id="mol14:Atom:5" class="event" cx="170.14" cy="68.26" r="8" opacity="0" />
  <circle id="mol14:Atom:6" class="event" cx="146.6" cy="73.26" r="8" opacity="0" />
  <circle id="mol14:Atom:7" class="event" cx="144.08" cy="97.2" r="8" opacity="0" />
  <circle id="mol14:Atom:8" class="event" cx="124.61" cy="111.35" r="8" opacity="0" />
  <circle id="mol14:Atom:9" class="event" cx="102.62" cy="101.56" r="8" opacity="0" />
  <circle id="mol14:Atom:10" class="event" cx="83.15" cy="115.7" r="8" opacity="0" />
  <circle id="mol14:Atom:11" class="event" cx="85.67" cy="139.64" r="8" opacity="0" />
  <circle id="mol14:Atom:12" class="event" cx="66.19" cy="153.79" r="8" opacity="0" />
  <circle id="mol14:Atom:13" class="event" cx="68.71" cy="177.72" r="8" opacity="0" />
  <circle id="mol14:Atom:14" class="event" cx="49.24" cy="191.87" r="8" opacity="0" />
  <circle id="mol14:Atom:15" class="event" cx="90.7" cy="187.51" r="8" opacity="0" />
  <circle id="mol14:Atom:16" class="event" cx="110.17" cy="173.37" r="8" opacity="0" />
  <circle id="mol14:Atom:17" class="event" cx="107.65" cy="149.43" r="8" opacity="0" />
  <circle id="mol14:Atom:18" class="event" cx="127.12" cy="135.28" r="8" opacity="0" />
  <circle id="mol14:Atom:19" class="event" cx="149.11" cy="145.07" r="8" opacity="0" />
  <circle id="mol14:Atom:20" class="event" cx="168.58" cy="130.93" r="8" opacity="0" />
  <circle id="mol14:Atom:21" class="event" cx="166.07" cy="106.99" r="8" opacity="0" />
  <circle id="mol14:Atom:22" class="event" cx="182.17" cy="89.1" r="8" opacity="0" />
  <circle id="mol14:Atom:23" class="event" cx="205.72" cy="84.1" r="8" opacity="0" />
  <circle id="mol14:Atom:24" class="event" cx="195.39" cy="109.24" r="8" opacity="0" />
  <circle id="mol14:Atom:25" class="event" cx="182.17" cy="130.79" r="8" opacity="0" />
  <circle id="mol14:Atom:26" class="event" cx="218.28" cy="109.95" r="8" opacity="0" />
  <circle id="mol14:Atom:27" class="event" cx="230.31" cy="130.79" r="8" opacity="0" />
  <circle id="mol14:Atom:28" class="event" cx="186.25" cy="114.73" r="8" opacity="0" />
  <circle id="mol14:Atom:29" class="event" cx="151.63" cy="169.01" r="8" opacity="0" />
  <circle id="mol14:Atom:30" class="event" cx="129.64" cy="159.22" r="8" opacity="0" />
</svg>