<svg id="mol327" xmlns="http://www.w3.org/2000/svg" version="1.1" width="320px" height="240px" viewBox="0 0 320 240" role="img"><title>4-chloro-3,5-dimethylphenol</title>
  <style> #mol327 text {font-family: sans-serif;} #mol327 { pointer-events:none; } #mol327 .event  { pointer-events:all; } #mol327 line { stroke-linecap:round; } #mol327 polygon { stroke-linejoin:round; } </style>
  <text x="194.96" y="136.67" stroke="none" font-size="14" fill="rgb(31,240,31)">Cl</text>
  <text x="112.98" y="88.67" stroke="none" font-size="14" fill="rgb(255,13,13)">O</text>
  <text x="102.88" y="88.67" stroke="none" font-size="14" fill="rgb(255,13,13)">H</text>
  <line x1="180.78" y1="96" x2="160" y2="84" stroke="currentColor" stroke-width="1.44" />
  <line x1="176.77" y1="97.84" x2="160.42" y2="88.4" stroke="currentColor" stroke-width="1.44" />
  <line x1="139.22" y1="96" x2="139.22" y2="120" stroke="currentColor" stroke-width="1.44" />
  <line x1="142.82" y1="98.56" x2="142.82" y2="117.44" stroke="currentColor" stroke-width="1.44" />
  <line x1="160" y1="132" x2="180.78" y2="120" stroke="currentColor" stroke-width="1.44" />
  <line x1="160.42" y1="127.6" x2="176.77" y2="118.16" stroke="currentColor" stroke-width="1.44" />
  <line x1="201.57" y1="84" x2="180.78" y2="96" stroke="currentColor" stroke-width="1.44" />
  <line x1="160" y1="84" x2="139.22" y2="96" stroke="currentColor" stroke-width="1.44" />
  <line x1="139.22" y1="120" x2="160" y2="132" stroke="currentColor" stroke-width="1.44" />
  <line x1="180.78" y1="96" x2="180.78" y2="120" stroke="currentColor" stroke-width="1.44" />
  <line x1="180.78" y1="120" x2="193.96" y2="127.61" stroke="currentColor" stroke-width="1.44" />
  <line x1="160" y1="132" x2="160" y2="156" stroke="currentColor" stroke-width="1.44" />
  <line x1="139.22" y1="96" x2="124.88" y2="87.72" stroke="currentColor" stroke-width="1.44" />
  <line id="mol327:Bond:1" class="event" x1="180.78" y1="96" x2="160" y2="84" stroke-width="8" opacity="0" />
  <line id="mol327:Bond:3" class="event" x1="139.22" y1="96" x2="139.22" y2="120" stroke-width="8" opacity="0" />
  <line id="mol327:Bond:5" class="event" x1="160" y1="132" x2="180.78" y2="120" stroke-width="8" opacity="0" />
  <line id="mol327:Bond:0" class="event" x1="201.57" y1="84" x2="180.78" y2="96" stroke-width="8" opacity="0" />
  <line id="mol327:Bond:2" class="event" x1="160" y1="84" x2="139.22" y2="96" stroke-width="8" opacity="0" />
  <line id="mol327:Bond:4" class="event" x1="139.22" y1="120" x2="160" y2="132" stroke-width="8" opacity="0" />
  <line id="mol327:Bond:6" class="event" x1="180.78" y1="96" x2="180.78" y2="120" stroke-width="8" opacity="0" />
  <line id="mol327:Bond:7" class="event" x1="180.78" y1="120" x2="201.57" y2="132" stroke-width="8" opacity="0" />
  <line id="mol327:Bond:8" class="event" x1="160" y1="132" x2="160" y2="156" stroke-width="8" opacity="0" />
  <line id="mol327:Bond:9" class="event" x1="139.22" y1="96" x2="118.43" y2="84" stroke-width="8" opacity="0" />
  <circle id="mol327:Atom:0" class="event" cx="201.57" cy="84" r="8" opacity="0" />
  <circle id="mol327:Atom:1" class="event" cx="180.78" cy="96" r="8" opacity="0" />
  <circle id="mol327:Atom:2" class="event" cx="160" cy="84" r="8" opacity="0" />
  <circle id="mol327:Atom:3" class="event" cx="139.22" cy="96" r="8" opacity="0" />
  <circle id="mol327:Atom:4" class="event" cx="139.22" cy="120" r="8" opacity="0" />
  <circle id="mol327:Atom:5" class="event" cx="160" cy="132" r="8" opacity="0" />
  <circle id="mol327:Atom:6" class="event" cx="180.78" cy="120" r="8" opacity="0" />
  <circle id="mol327:Atom:7" class="event" cx="201.57" cy="132" r="8" opacity="0" />
  <circle id="mol327:Atom:8" class="event" cx="160" cy="156" r="8" opacity="0" />
  <circle id="mol327:Atom:9" class="event" cx="118.43" cy="84" r="8" opacity="0" />
</svg>