<svg id="mol30" xmlns="http://www.w3.org/2000/svg" version="1.1" width="320px" height="240px" viewBox="0 0 320 240" role="img"><title>N-[(7S)-1,2,3,10-tetramethoxy-9-oxo-6,7-dihydro-5H-benzo[a]heptalen-7-yl]acetamide</title>
  <style> #mol30 text {font-family: sans-serif;} #mol30 { pointer-events:none; } #mol30 .event  { pointer-events:all; } #mol30 line { stroke-linecap:round; } #mol30 polygon { stroke-linejoin:round; } </style>
  <text x="118.98" y="215.67" stroke="none" font-size="12" fill="rgb(160,0,0)">this enantiomer</text>
  <text x="182.08" y="51.15" stroke="none" font-size="14" fill="rgb(255,13,13)">O</text>
  <text x="203.26" y="87.15" stroke="none" font-size="14" fill="rgb(48,80,248)">N</text>
  <text x="213.36" y="87.15" stroke="none" font-size="14" fill="rgb(48,80,248)">H</text>
  <text x="181.52" y="102.48" stroke="none" font-size="9" fill="rgb(160,0,0)">S</text>
  <text x="180.51" y="91.19" stroke="none" font-size="9" fill="rgb(160,0,0)">abs</text>
  <text x="243.54" y="145.65" stroke="none" font-size="14" fill="rgb(255,13,13)">O</text>
  <text x="227.16" y="187.38" stroke="none" font-size="14" fill="rgb(255,13,13)">O</text>
  <text x="142.55" y="177.4" stroke="none" font-size="14" fill="rgb(255,13,13)">O</text>
  <text x="94.55" y="177.4" stroke="none" font-size="14" fill="rgb(255,13,13)">O</text>
  <text x="70.55" y="135.83" stroke="none" font-size="14" fill="rgb(255,13,13)">O</text>
  <line x1="210.11" y1="57.44" x2="194.87" y2="48.65" stroke="currentColor" stroke-width="1.44" />
  <line x1="208.31" y1="60.56" x2="193.07" y2="51.76" stroke="currentColor" stroke-width="1.44" />
  <line x1="135.99" y1="110.38" x2="111.99" y2="110.38" stroke="currentColor" stroke-width="1.44" />
  <line x1="133.43" y1="113.98" x2="114.56" y2="113.98" stroke="currentColor" stroke-width="1.44" />
  <line x1="99.99" y1="131.16" x2="111.99" y2="151.95" stroke="currentColor" stroke-width="1.44" />
  <line x1="104.39" y1="131.58" x2="113.83" y2="147.93" stroke="currentColor" stroke-width="1.44" />
  <line x1="135.99" y1="151.95" x2="147.99" y2="131.16" stroke="currentColor" stroke-width="1.44" />
  <line x1="134.16" y1="147.93" x2="143.6" y2="131.58" stroke="currentColor" stroke-width="1.44" />
  <line x1="171.73" y1="134.74" x2="173.52" y2="158.67" stroke="currentColor" stroke-width="1.44" />
  <line x1="175.48" y1="136.63" x2="176.95" y2="156.25" stroke="currentColor" stroke-width="1.44" />
  <line x1="193.35" y1="172.19" x2="216.28" y2="165.12" stroke="currentColor" stroke-width="1.44" />
  <line x1="194.36" y1="168.11" x2="213.15" y2="162.32" stroke="currentColor" stroke-width="1.44" />
  <line x1="224.32" y1="144.64" x2="242.67" y2="143.26" stroke="currentColor" stroke-width="1.44" />
  <line x1="224.05" y1="141.05" x2="242.4" y2="139.67" stroke="currentColor" stroke-width="1.44" />
  <line x1="213.05" y1="121.99" x2="189.32" y2="118.42" stroke="currentColor" stroke-width="1.44" />
  <line x1="210.37" y1="125.23" x2="190.92" y2="122.3" stroke="currentColor" stroke-width="1.44" />
  <line x1="229.1" y1="46.48" x2="208.31" y2="58.48" stroke="currentColor" stroke-width="1.44" />
  <line x1="208.31" y1="58.48" x2="208.31" y2="75.48" stroke="currentColor" stroke-width="1.44" />
  <line x1="190.16" y1="93.4" x2="189.78" y2="92.75" stroke="rgb(160,0,0)" stroke-width="1.44" />
  <line x1="192.79" y1="92.31" x2="192.04" y2="91.01" stroke="rgb(160,0,0)" stroke-width="1.44" />
  <line x1="195.42" y1="91.22" x2="194.3" y2="89.27" stroke="rgb(160,0,0)" stroke-width="1.44" />
  <line x1="198.06" y1="90.14" x2="196.56" y2="87.54" stroke="rgb(160,0,0)" stroke-width="1.44" />
  <line x1="200.69" y1="89.05" x2="198.81" y2="85.8" stroke="rgb(160,0,0)" stroke-width="1.44" />
  <line x1="202.26" y1="86.11" x2="201.07" y2="84.06" stroke="rgb(160,0,0)" stroke-width="1.44" />
  <line x1="187.53" y1="94.48" x2="167.7" y2="80.96" stroke="currentColor" stroke-width="1.44" />
  <line x1="167.7" y1="80.96" x2="144.76" y2="88.04" stroke="currentColor" stroke-width="1.44" />
  <line x1="144.76" y1="88.04" x2="135.99" y2="110.38" stroke="currentColor" stroke-width="1.44" />
  <line x1="111.99" y1="110.38" x2="99.99" y2="131.16" stroke="currentColor" stroke-width="1.44" />
  <line x1="111.99" y1="151.95" x2="135.99" y2="151.95" stroke="currentColor" stroke-width="1.44" />
  <line x1="135.99" y1="110.38" x2="147.99" y2="131.16" stroke="currentColor" stroke-width="1.44" />
  <line x1="147.99" y1="131.16" x2="171.73" y2="134.74" stroke="currentColor" stroke-width="1.44" />
  <line x1="173.52" y1="158.67" x2="193.35" y2="172.19" stroke="currentColor" stroke-width="1.44" />
  <line x1="216.28" y1="165.12" x2="225.05" y2="142.78" stroke="currentColor" stroke-width="1.44" />
  <line x1="225.05" y1="142.78" x2="213.05" y2="121.99" stroke="currentColor" stroke-width="1.44" />
  <line x1="187.53" y1="94.48" x2="189.32" y2="118.42" stroke="currentColor" stroke-width="1.44" />
  <line x1="171.73" y1="134.74" x2="189.32" y2="118.42" stroke="currentColor" stroke-width="1.44" />
  <line x1="216.28" y1="165.12" x2="226.16" y2="175.76" stroke="currentColor" stroke-width="1.44" />
  <line x1="239.05" y1="181.24" x2="256.01" y2="177.37" stroke="currentColor" stroke-width="1.44" />
  <line x1="135.99" y1="151.95" x2="143.95" y2="165.73" stroke="currentColor" stroke-width="1.44" />
  <line x1="143.95" y1="179.73" x2="135.99" y2="193.52" stroke="currentColor" stroke-width="1.44" />
  <line x1="111.99" y1="151.95" x2="104.04" y2="165.73" stroke="currentColor" stroke-width="1.44" />
  <line x1="104.04" y1="179.73" x2="111.99" y2="193.52" stroke="currentColor" stroke-width="1.44" />
  <line x1="99.99" y1="131.16" x2="82.44" y2="131.16" stroke="currentColor" stroke-width="1.44" />
  <line x1="71.95" y1="138.16" x2="63.99" y2="151.95" stroke="currentColor" stroke-width="1.44" />
  <line id="mol30:Bond:1" class="event" x1="208.31" y1="58.48" x2="187.53" y2="46.48" stroke-width="8" opacity="0" />
  <line id="mol30:Bond:7" class="event" x1="135.99" y1="110.38" x2="111.99" y2="110.38" stroke-width="8" opacity="0" />
  <line id="mol30:Bond:9" class="event" x1="99.99" y1="131.16" x2="111.99" y2="151.95" stroke-width="8" opacity="0" />
  <line id="mol30:Bond:11" class="event" x1="135.99" y1="151.95" x2="147.99" y2="131.16" stroke-width="8" opacity="0" />
  <line id="mol30:Bond:14" class="event" x1="171.73" y1="134.74" x2="173.52" y2="158.67" stroke-width="8" opacity="0" />
  <line id="mol30:Bond:16" class="event" x1="193.35" y1="172.19" x2="216.28" y2="165.12" stroke-width="8" opacity="0" />
  <line id="mol30:Bond:18" class="event" x1="225.05" y1="142.78" x2="248.98" y2="140.98" stroke-width="8" opacity="0" />
  <line id="mol30:Bond:20" class="event" x1="213.05" y1="121.99" x2="189.32" y2="118.42" stroke-width="8" opacity="0" />
  <line id="mol30:Bond:0" class="event" x1="229.1" y1="46.48" x2="208.31" y2="58.48" stroke-width="8" opacity="0" />
  <line id="mol30:Bond:2" class="event" x1="208.31" y1="58.48" x2="208.31" y2="82.48" stroke-width="8" opacity="0" />
  <line id="mol30:Bond:3" class="event" x1="187.53" y1="94.48" x2="208.31" y2="82.48" stroke-width="8" opacity="0" />
  <line id="mol30:Bond:4" class="event" x1="187.53" y1="94.48" x2="167.7" y2="80.96" stroke-width="8" opacity="0" />
  <line id="mol30:Bond:5" class="event" x1="167.7" y1="80.96" x2="144.76" y2="88.04" stroke-width="8" opacity="0" />
  <line id="mol30:Bond:6" class="event" x1="144.76" y1="88.04" x2="135.99" y2="110.38" stroke-width="8" opacity="0" />
  <line id="mol30:Bond:8" class="event" x1="111.99" y1="110.38" x2="99.99" y2="131.16" stroke-width="8" opacity="0" />
  <line id="mol30:Bond:10" class="event" x1="111.99" y1="151.95" x2="135.99" y2="151.95" stroke-width="8" opacity="0" />
  <line id="mol30:Bond:12" class="event" x1="135.99" y1="110.38" x2="147.99" y2="131.16" stroke-width="8" opacity="0" />
  <line id="mol30:Bond:13" class="event" x1="147.99" y1="131.16" x2="171.73" y2="134.74" stroke-width="8" opacity="0" />
  <line id="mol30:Bond:15" class="event" x1="173.52" y1="158.67" x2="193.35" y2="172.19" stroke-width="8" opacity="0" />
  <line id="mol30:Bond:17" class="event" x1="216.28" y1="165.12" x2="225.05" y2="142.78" stroke-width="8" opacity="0" />
  <line id="mol30:Bond:19" class="event" x1="225.05" y1="142.78" x2="213.05" y2="121.99" stroke-width="8" opacity="0" />
  <line id="mol30:Bond:21" class="event" x1="187.53" y1="94.48" x2="189.32" y2="118.42" stroke-width="8" opacity="0" />
  <line id="mol30:Bond:22" class="event" x1="171.73" y1="134.74" x2="189.32" y2="118.42" stroke-width="8" opacity="0" />
  <line id="mol30:Bond:23" class="event" x1="216.28" y1="165.12" x2="232.61" y2="182.71" stroke-width="8" opacity="0" />
  <line id="mol30:Bond:24" class="event" x1="232.61" y1="182.71" x2="256.01" y2="177.37" stroke-width="8" opacity="0" />
  <line id="mol30:Bond:25" class="event" x1="135.99" y1="151.95" x2="147.99" y2="172.73" stroke-width="8" opacity="0" />
  <line id="mol30:Bond:26" class="event" x1="147.99" y1="172.73" x2="135.99" y2="193.52" stroke-width="8" opacity="0" />
  <line id="mol30:Bond:27" class="event" x1="111.99" y1="151.95" x2="99.99" y2="172.73" stroke-width="8" opacity="0" />
  <line id="mol30:Bond:28" class="event" x1="99.99" y1="172.73" x2="111.99" y2="193.52" stroke-width="8" opacity="0" />
  <line id="mol30:Bond:29" class="event" x1="99.99" y1="131.16" x2="75.99" y2="131.16" stroke-width="8" opacity="0" />
  <line id="mol30:Bond:30" class="event" x1="75.99" y1="131.16" x2="63.99" y2="151.95" stroke-width="8" opacity="0" />
  <circle id="mol30:Atom:0" class="event" cx="229.1" cy="46.48" r="8" opacity="0" />
  <circle id="mol30:Atom:1" class="event" cx="208.31" cy="58.48" r="8" opacity="0" />
  <circle id="mol30:Atom:2" class="event" cx="187.53" cy="46.48" r="8" opacity="0" />
  <circle id="mol30:Atom:3" class="event" cx="208.31" cy="82.48" r="8" opacity="0" />
  <circle id="mol30:Atom:4" class="event" cx="187.53" cy="94.48" r="8" opacity="0" />
  <circle id="mol30:Atom:5" class="event" cx="167.7" cy="80.96" r="8" opacity="0" />
  <circle id="mol30:Atom:6" class="event" cx="144.76" cy="88.04" r="8" opacity="0" />
  <circle id="mol30:Atom:7" class="event" cx="135.99" cy="110.38" r="8" opacity="0" />
  <circle id="mol30:Atom:8" class="event" cx="111.99" cy="110.38" r="8" opacity="0" />
  <circle id="mol30:Atom:9" class="event" cx="99.99" cy="131.16" r="8" opacity="0" />
  <circle id="mol30:Atom:10" class="event" cx="111.99" cy="151.95" r="8" opacity="0" />
  <circle id="mol30:Atom:11" class="event" cx="135.99" cy="151.95" r="8" opacity="0" />
  <circle id="mol30:Atom:12" class="event" cx="147.99" cy="131.16" r="8" opacity="0" />
  <circle id="mol30:Atom:13" class="event" cx="171.73" cy="134.74" r="8" opacity="0" />
  <circle id="mol30:Atom:14" class="event" cx="173.52" cy="158.67" r="8" opacity="0" />
  <circle id="mol30:Atom:15" class="event" cx="193.35" cy="172.19" r="8" opacity="0" />
  <circle id="mol30:Atom:16" class="event" cx="216.28" cy="165.12" r="8" opacity="0" />
  <circle id="mol30:Atom:17" class="event" cx="225.05" cy="142.78" r="8" opacity="0" />
  <circle id="mol30:Atom:18" class="event" cx="248.98" cy="140.98" r="8" opacity="0" />
  <circle id="mol30:Atom:19" class="event" cx="213.05" cy="121.99" r="8" opacity="0" />
  <circle id="mol30:Atom:20" class="event" cx="189.32" cy="118.42" r="8" opacity="0" />
  <circle id="mol30:Atom:21" class="event" cx="232.61" cy="182.71" r="8" opacity="0" />
  <circle id="mol30:Atom:22" class="event" cx="256.01" cy="177.37" r="8" opacity="0" />
  <circle id="mol30:Atom:23" class="event" cx="147.99" cy="172.73" r="8" opacity="0" />
  <circle id="mol30:Atom:24" class="event" cx="135.99" cy="193.52" r="8" opacity="0" />
  <circle id="mol30:Atom:25" class="event" cx="99.99" cy="172.73" r="8" opacity="0" />
  <circle id="mol30:Atom:26" class="event" cx="111.99" cy="193.52" r="8" opacity="0" />
  <circle id="mol30:Atom:27" class="event" cx="75.99" cy="131.16" r="8" opacity="0" />
  <circle id="mol30:Atom:28" class="event" cx="63.99" cy="151.95" r="8" opacity="0" />
</svg>