<svg id="mol728" xmlns="http://www.w3.org/2000/svg" version="1.1" width="320px" height="240px" viewBox="0 0 320 240" role="img"><title>(2R,3S,4R,5R)-2,3,4,5,6-pentahydroxyhexanoate</title>
  <style> #mol728 text {font-family: sans-serif;} #mol728 { pointer-events:none; } #mol728 .event  { pointer-events:all; } #mol728 line { stroke-linecap:round; } #mol728 polygon { stroke-linejoin:round; } </style>
  <text x="113.93" y="179.15" stroke="none" font-size="12" fill="rgb(160,0,0)">this enantiomer</text>
  <text x="122.33" y="134" stroke="none" font-size="9" fill="rgb(160,0,0)">R</text>
  <text x="121.57" y="122.7" stroke="none" font-size="9" fill="rgb(160,0,0)">abs</text>
  <text x="143.11" y="122" stroke="none" font-size="9" fill="rgb(160,0,0)">R</text>
  <text x="147.81" y="113.85" stroke="none" font-size="9" fill="rgb(160,0,0)">abs</text>
  <text x="164.39" y="134" stroke="none" font-size="9" fill="rgb(160,0,0)">S</text>
  <text x="163.14" y="122.7" stroke="none" font-size="9" fill="rgb(160,0,0)">abs</text>
  <text x="184.68" y="122" stroke="none" font-size="9" fill="rgb(160,0,0)">R</text>
  <text x="189.38" y="113.85" stroke="none" font-size="9" fill="rgb(160,0,0)">abs</text>
  <text x="227.3" y="118.67" stroke="none" font-size="14" fill="rgb(255,13,13)">O</text>
  <text x="206.52" y="154.67" stroke="none" font-size="14" fill="rgb(255,13,13)">O</text>
  <text x="218.41" y="149" stroke="none" font-size="9" fill="rgb(255,13,13)">-</text>
  <text x="185.73" y="94.67" stroke="none" font-size="14" fill="rgb(255,13,13)">O</text>
  <text x="196.62" y="94.67" stroke="none" font-size="14" fill="rgb(255,13,13)">H</text>
  <text x="164.95" y="154.67" stroke="none" font-size="14" fill="rgb(255,13,13)">O</text>
  <text x="175.84" y="154.67" stroke="none" font-size="14" fill="rgb(255,13,13)">H</text>
  <text x="144.16" y="94.67" stroke="none" font-size="14" fill="rgb(255,13,13)">O</text>
  <text x="155.05" y="94.67" stroke="none" font-size="14" fill="rgb(255,13,13)">H</text>
  <text x="123.38" y="154.67" stroke="none" font-size="14" fill="rgb(255,13,13)">O</text>
  <text x="134.27" y="154.67" stroke="none" font-size="14" fill="rgb(255,13,13)">H</text>
  <text x="81.81" y="130.67" stroke="none" font-size="14" fill="rgb(255,13,13)">O</text>
  <text x="71.7" y="130.67" stroke="none" font-size="14" fill="rgb(255,13,13)">H</text>
  <line x1="211.96" y1="128.08" x2="227.2" y2="119.28" stroke="currentColor" stroke-width="1.44" />
  <line x1="210.16" y1="124.96" x2="225.4" y2="116.16" stroke="currentColor" stroke-width="1.44" />
  <line x1="108.04" y1="114" x2="128.82" y2="126" stroke="currentColor" stroke-width="1.44" />
  <line x1="128.82" y1="126" x2="149.61" y2="114" stroke="currentColor" stroke-width="1.44" />
  <line x1="149.61" y1="114" x2="170.39" y2="126" stroke="currentColor" stroke-width="1.44" />
  <line x1="170.39" y1="126" x2="191.18" y2="114" stroke="currentColor" stroke-width="1.44" />
  <line x1="191.18" y1="114" x2="211.96" y2="126" stroke="currentColor" stroke-width="1.44" />
  <line x1="211.96" y1="126" x2="211.96" y2="143" stroke="currentColor" stroke-width="1.44" />
  <polygon points="191,114 192,106 190,106 " fill="rgb(160,0,0)" stroke="rgb(160,0,0)" stroke-width="1.44" />
  <polygon points="190,106 192,106 193,97 189,97 " fill="rgb(160,0,0)" stroke="rgb(160,0,0)" stroke-width="1.44" />
  <polygon points="170,126 169,135 171,135 " fill="rgb(160,0,0)" stroke="rgb(160,0,0)" stroke-width="1.44" />
  <polygon points="171,135 169,135 169,143 172,143 " fill="rgb(160,0,0)" stroke="rgb(160,0,0)" stroke-width="1.44" />
  <polygon points="150,114 151,106 149,106 " fill="rgb(160,0,0)" stroke="rgb(160,0,0)" stroke-width="1.44" />
  <polygon points="149,106 151,106 151,97 148,97 " fill="rgb(160,0,0)" stroke="rgb(160,0,0)" stroke-width="1.44" />
  <line x1="128.45" y1="128.82" x2="129.2" y2="128.82" stroke="rgb(160,0,0)" stroke-width="1.44" />
  <line x1="128.07" y1="131.65" x2="129.57" y2="131.65" stroke="rgb(160,0,0)" stroke-width="1.44" />
  <line x1="127.7" y1="134.47" x2="129.95" y2="134.47" stroke="rgb(160,0,0)" stroke-width="1.44" />
  <line x1="127.32" y1="137.29" x2="130.32" y2="137.29" stroke="rgb(160,0,0)" stroke-width="1.44" />
  <line x1="126.95" y1="140.12" x2="130.7" y2="140.12" stroke="rgb(160,0,0)" stroke-width="1.44" />
  <line x1="126.57" y1="142.94" x2="131.07" y2="142.94" stroke="rgb(160,0,0)" stroke-width="1.44" />
  <line x1="108.04" y1="114" x2="93.7" y2="122.28" stroke="currentColor" stroke-width="1.44" />
  <line id="mol728:Bond:5" class="event" x1="211.96" y1="126" x2="232.75" y2="114" stroke-width="8" opacity="0" />
  <line id="mol728:Bond:0" class="event" x1="108.04" y1="114" x2="128.82" y2="126" stroke-width="8" opacity="0" />
  <line id="mol728:Bond:1" class="event" x1="128.82" y1="126" x2="149.61" y2="114" stroke-width="8" opacity="0" />
  <line id="mol728:Bond:2" class="event" x1="149.61" y1="114" x2="170.39" y2="126" stroke-width="8" opacity="0" />
  <line id="mol728:Bond:3" class="event" x1="170.39" y1="126" x2="191.18" y2="114" stroke-width="8" opacity="0" />
  <line id="mol728:Bond:4" class="event" x1="191.18" y1="114" x2="211.96" y2="126" stroke-width="8" opacity="0" />
  <line id="mol728:Bond:6" class="event" x1="211.96" y1="126" x2="211.96" y2="150" stroke-width="8" opacity="0" />
  <line id="mol728:Bond:7" class="event" x1="191.18" y1="114" x2="191.18" y2="90" stroke-width="8" opacity="0" />
  <line id="mol728:Bond:8" class="event" x1="170.39" y1="126" x2="170.39" y2="150" stroke-width="8" opacity="0" />
  <line id="mol728:Bond:9" class="event" x1="149.61" y1="114" x2="149.61" y2="90" stroke-width="8" opacity="0" />
  <line id="mol728:Bond:10" class="event" x1="128.82" y1="126" x2="128.82" y2="150" stroke-width="8" opacity="0" />
  <line id="mol728:Bond:11" class="event" x1="108.04" y1="114" x2="87.25" y2="126" stroke-width="8" opacity="0" />
  <circle id="mol728:Atom:0" class="event" cx="108.04" cy="114" r="8" opacity="0" />
  <circle id="mol728:Atom:1" class="event" cx="128.82" cy="126" r="8" opacity="0" />
  <circle id="mol728:Atom:2" class="event" cx="149.61" cy="114" r="8" opacity="0" />
  <circle id="mol728:Atom:3" class="event" cx="170.39" cy="126" r="8" opacity="0" />
  <circle id="mol728:Atom:4" class="event" cx="191.18" cy="114" r="8" opacity="0" />
  <circle id="mol728:Atom:5" class="event" cx="211.96" cy="126" r="8" opacity="0" />
  <circle id="mol728:Atom:6" class="event" cx="232.75" cy="114" r="8" opacity="0" />
  <circle id="mol728:Atom:7" class="event" cx="211.96" cy="150" r="8" opacity="0" />
  <circle id="mol728:Atom:8" class="event" cx="191.18" cy="90" r="8" opacity="0" />
  <circle id="mol728:Atom:9" class="event" cx="170.39" cy="150" r="8" opacity="0" />
  <circle id="mol728:Atom:10" class="event" cx="149.61" cy="90" r="8" opacity="0" />
  <circle id="mol728:Atom:11" class="event" cx="128.82" cy="150" r="8" opacity="0" />
  <circle id="mol728:Atom:12" class="event" cx="87.25" cy="126" r="8" opacity="0" />
</svg>