<svg id="mol989" xmlns="http://www.w3.org/2000/svg" version="1.1" width="320px" height="240px" viewBox="0 0 320 240" role="img"><title>ethyl 1-methyl-4-phenylpiperidine-4-carboxylate</title>
  <style> #mol989 text {font-family: sans-serif;} #mol989 { pointer-events:none; } #mol989 .event  { pointer-events:all; } #mol989 line { stroke-linecap:round; } #mol989 polygon { stroke-linejoin:round; } </style>
  <text x="188.15" y="112.79" stroke="none" font-size="14" fill="rgb(255,13,13)">O</text>
  <text x="165.11" y="82" stroke="none" font-size="14" fill="rgb(255,13,13)">O</text>
  <text x="102.16" y="142.95" stroke="none" font-size="14" fill="rgb(48,80,248)">N</text>
  <line x1="172.36" y1="102.22" x2="172.36" y2="84.33" stroke="currentColor" stroke-width="1.44" />
  <line x1="168.76" y1="102.75" x2="168.76" y2="84.33" stroke="currentColor" stroke-width="1.44" />
  <line x1="170.56" y1="126.1" x2="170.56" y2="150.48" stroke="currentColor" stroke-width="1.44" />
  <line x1="174.16" y1="128.86" x2="174.16" y2="147.91" stroke="currentColor" stroke-width="1.44" />
  <line x1="191.67" y1="162.67" x2="212.79" y2="150.48" stroke="currentColor" stroke-width="1.44" />
  <line x1="192.09" y1="158.27" x2="208.77" y2="148.64" stroke="currentColor" stroke-width="1.44" />
  <line x1="212.79" y1="126.1" x2="190.71" y2="116.8" stroke="currentColor" stroke-width="1.44" />
  <line x1="208.77" y1="128.31" x2="191.11" y2="120.87" stroke="currentColor" stroke-width="1.44" />
  <line x1="233.9" y1="113.9" x2="212.79" y2="101.71" stroke="currentColor" stroke-width="1.44" />
  <line x1="212.79" y1="101.71" x2="200.04" y2="105.97" stroke="currentColor" stroke-width="1.44" />
  <line x1="187.15" y1="106.33" x2="170.56" y2="101.71" stroke="currentColor" stroke-width="1.44" />
  <line x1="170.56" y1="101.71" x2="149.44" y2="113.9" stroke="currentColor" stroke-width="1.44" />
  <line x1="149.44" y1="113.9" x2="128.33" y2="101.71" stroke="currentColor" stroke-width="1.44" />
  <line x1="128.33" y1="101.71" x2="107.21" y2="113.9" stroke="currentColor" stroke-width="1.44" />
  <line x1="107.21" y1="113.9" x2="107.21" y2="131.29" stroke="currentColor" stroke-width="1.44" />
  <line x1="113.27" y1="141.78" x2="128.33" y2="150.48" stroke="currentColor" stroke-width="1.44" />
  <line x1="128.33" y1="150.48" x2="149.44" y2="138.29" stroke="currentColor" stroke-width="1.44" />
  <line x1="149.44" y1="113.9" x2="149.44" y2="138.29" stroke="currentColor" stroke-width="1.44" />
  <line x1="101.16" y1="141.78" x2="86.1" y2="150.48" stroke="currentColor" stroke-width="1.44" />
  <line x1="149.44" y1="113.9" x2="170.56" y2="126.1" stroke="currentColor" stroke-width="1.44" />
  <line x1="170.56" y1="150.48" x2="191.67" y2="162.67" stroke="currentColor" stroke-width="1.44" />
  <line x1="212.79" y1="150.48" x2="212.79" y2="126.1" stroke="currentColor" stroke-width="1.44" />
  <line x1="170.56" y1="126.1" x2="190.71" y2="116.8" stroke="currentColor" stroke-width="1.44" />
  <line id="mol989:Bond:3" class="event" x1="170.56" y1="101.71" x2="170.56" y2="77.33" stroke-width="8" opacity="0" />
  <line id="mol989:Bond:13" class="event" x1="170.56" y1="126.1" x2="170.56" y2="150.48" stroke-width="8" opacity="0" />
  <line id="mol989:Bond:15" class="event" x1="191.67" y1="162.67" x2="212.79" y2="150.48" stroke-width="8" opacity="0" />
  <line id="mol989:Bond:17" class="event" x1="212.79" y1="126.1" x2="190.71" y2="116.8" stroke-width="8" opacity="0" />
  <line id="mol989:Bond:0" class="event" x1="233.9" y1="113.9" x2="212.79" y2="101.71" stroke-width="8" opacity="0" />
  <line id="mol989:Bond:1" class="event" x1="212.79" y1="101.71" x2="193.6" y2="108.12" stroke-width="8" opacity="0" />
  <line id="mol989:Bond:2" class="event" x1="193.6" y1="108.12" x2="170.56" y2="101.71" stroke-width="8" opacity="0" />
  <line id="mol989:Bond:4" class="event" x1="170.56" y1="101.71" x2="149.44" y2="113.9" stroke-width="8" opacity="0" />
  <line id="mol989:Bond:5" class="event" x1="149.44" y1="113.9" x2="128.33" y2="101.71" stroke-width="8" opacity="0" />
  <line id="mol989:Bond:6" class="event" x1="128.33" y1="101.71" x2="107.21" y2="113.9" stroke-width="8" opacity="0" />
  <line id="mol989:Bond:7" class="event" x1="107.21" y1="113.9" x2="107.21" y2="138.29" stroke-width="8" opacity="0" />
  <line id="mol989:Bond:8" class="event" x1="107.21" y1="138.29" x2="128.33" y2="150.48" stroke-width="8" opacity="0" />
  <line id="mol989:Bond:9" class="event" x1="128.33" y1="150.48" x2="149.44" y2="138.29" stroke-width="8" opacity="0" />
  <line id="mol989:Bond:10" class="event" x1="149.44" y1="113.9" x2="149.44" y2="138.29" stroke-width="8" opacity="0" />
  <line id="mol989:Bond:11" class="event" x1="107.21" y1="138.29" x2="86.1" y2="150.48" stroke-width="8" opacity="0" />
  <line id="mol989:Bond:12" class="event" x1="149.44" y1="113.9" x2="170.56" y2="126.1" stroke-width="8" opacity="0" />
  <line id="mol989:Bond:14" class="event" x1="170.56" y1="150.48" x2="191.67" y2="162.67" stroke-width="8" opacity="0" />
  <line id="mol989:Bond:16" class="event" x1="212.79" y1="150.48" x2="212.79" y2="126.1" stroke-width="8" opacity="0" />
  <line id="mol989:Bond:18" class="event" x1="170.56" y1="126.1" x2="190.71" y2="116.8" stroke-width="8" opacity="0" />
  <circle id="mol989:Atom:0" class="event" cx="233.9" cy="113.9" r="8" opacity="0" />
  <circle id="mol989:Atom:1" class="event" cx="212.79" cy="101.71" r="8" opacity="0" />
  <circle id="mol989:Atom:2" class="event" cx="193.6" cy="108.12" r="8" opacity="0" />
  <circle id="mol989:Atom:3" class="event" cx="170.56" cy="101.71" r="8" opacity="0" />
  <circle id="mol989:Atom:4" class="event" cx="170.56" cy="77.33" r="8" opacity="0" />
  <circle id="mol989:Atom:5" class="event" cx="149.44" cy="113.9" r="8" opacity="0" />
  <circle id="mol989:Atom:6" class="event" cx="128.33" cy="101.71" r="8" opacity="0" />
  <circle id="mol989:Atom:7" class="event" cx="107.21" cy="113.9" r="8" opacity="0" />
  <circle id="mol989:Atom:8" class="event" cx="107.21" cy="138.29" r="8" opacity="0" />
  <circle id="mol989:Atom:9" class="event" cx="128.33" cy="150.48" r="8" opacity="0" />
  <circle id="mol989:Atom:10" class="event" cx="149.44" cy="138.29" r="8" opacity="0" />
  <circle id="mol989:Atom:11" class="event" cx="86.1" cy="150.48" r="8" opacity="0" />
  <circle id="mol989:Atom:12" class="event" cx="170.56" cy="126.1" r="8" opacity="0" />
  <circle id="mol989:Atom:13" class="event" cx="170.56" cy="150.48" r="8" opacity="0" />
  <circle id="mol989:Atom:14" class="event" cx="191.67" cy="162.67" r="8" opacity="0" />
  <circle id="mol989:Atom:15" class="event" cx="212.79" cy="150.48" r="8" opacity="0" />
  <circle id="mol989:Atom:16" class="event" cx="212.79" cy="126.1" r="8" opacity="0" />
  <circle id="mol989:Atom:17" class="event" cx="190.71" cy="116.8" r="8" opacity="0" />
</svg>