<svg id="mol1132" xmlns="http://www.w3.org/2000/svg" version="1.1" width="320px" height="240px" viewBox="0 0 320 240" role="img"><title>1,3-dinitrooxypropan-2-yl nitrate</title>
  <style> #mol1132 text {font-family: sans-serif;} #mol1132 { pointer-events:none; } #mol1132 .event  { pointer-events:all; } #mol1132 line { stroke-linecap:round; } #mol1132 polygon { stroke-linejoin:round; } </style>
  <text x="196.12" y="112.67" stroke="none" font-size="14" fill="rgb(255,13,13)">O</text>
  <text x="217.3" y="100.67" stroke="none" font-size="14" fill="rgb(48,80,248)">N</text>
  <text x="228.41" y="95" stroke="none" font-size="9" fill="rgb(48,80,248)">+</text>
  <text x="237.69" y="112.67" stroke="none" font-size="14" fill="rgb(255,13,13)">O</text>
  <text x="216.91" y="76.67" stroke="none" font-size="14" fill="rgb(255,13,13)">O</text>
  <text x="228.8" y="71" stroke="none" font-size="9" fill="rgb(255,13,13)">-</text>
  <text x="154.55" y="136.67" stroke="none" font-size="14" fill="rgb(255,13,13)">O</text>
  <text x="134.16" y="148.67" stroke="none" font-size="14" fill="rgb(48,80,248)">N</text>
  <text x="145.27" y="143" stroke="none" font-size="9" fill="rgb(48,80,248)">+</text>
  <text x="112.98" y="136.67" stroke="none" font-size="14" fill="rgb(255,13,13)">O</text>
  <text x="133.77" y="172.67" stroke="none" font-size="14" fill="rgb(255,13,13)">O</text>
  <text x="145.66" y="167" stroke="none" font-size="9" fill="rgb(255,13,13)">-</text>
  <text x="112.98" y="112.67" stroke="none" font-size="14" fill="rgb(255,13,13)">O</text>
  <text x="92.59" y="100.67" stroke="none" font-size="14" fill="rgb(48,80,248)">N</text>
  <text x="103.7" y="95" stroke="none" font-size="9" fill="rgb(48,80,248)">+</text>
  <text x="92.2" y="76.67" stroke="none" font-size="14" fill="rgb(255,13,13)">O</text>
  <text x="71.42" y="112.67" stroke="none" font-size="14" fill="rgb(255,13,13)">O</text>
  <text x="83.31" y="107" stroke="none" font-size="9" fill="rgb(255,13,13)">-</text>
  <line x1="227.51" y1="101.05" x2="235.79" y2="105.84" stroke="currentColor" stroke-width="1.44" />
  <line x1="229.31" y1="97.94" x2="237.59" y2="102.72" stroke="currentColor" stroke-width="1.44" />
  <line x1="134.06" y1="138.95" x2="125.78" y2="134.16" stroke="currentColor" stroke-width="1.44" />
  <line x1="132.26" y1="142.06" x2="123.98" y2="137.28" stroke="currentColor" stroke-width="1.44" />
  <line x1="99.45" y1="89" x2="99.45" y2="79" stroke="currentColor" stroke-width="1.44" />
  <line x1="95.85" y1="89" x2="95.85" y2="79" stroke="currentColor" stroke-width="1.44" />
  <line x1="139.22" y1="96" x2="160" y2="108" stroke="currentColor" stroke-width="1.44" />
  <line x1="160" y1="108" x2="180.78" y2="96" stroke="currentColor" stroke-width="1.44" />
  <line x1="180.78" y1="96" x2="195.12" y2="104.28" stroke="currentColor" stroke-width="1.44" />
  <line x1="208.02" y1="104.28" x2="216.3" y2="99.5" stroke="currentColor" stroke-width="1.44" />
  <line x1="222.35" y1="89" x2="222.35" y2="79" stroke="currentColor" stroke-width="1.44" />
  <line x1="160" y1="108" x2="160" y2="125" stroke="currentColor" stroke-width="1.44" />
  <line x1="153.55" y1="135.72" x2="150.76" y2="137.33" stroke="currentColor" stroke-width="1.44" />
  <line x1="139.22" y1="151" x2="139.22" y2="161" stroke="currentColor" stroke-width="1.44" />
  <line x1="139.22" y1="96" x2="124.88" y2="104.28" stroke="currentColor" stroke-width="1.44" />
  <line x1="111.98" y1="104.28" x2="103.7" y2="99.5" stroke="currentColor" stroke-width="1.44" />
  <line x1="91.59" y1="99.5" x2="87.3" y2="101.97" stroke="currentColor" stroke-width="1.44" />
  <line id="mol1132:Bond:4" class="event" x1="222.35" y1="96" x2="243.14" y2="108" stroke-width="8" opacity="0" />
  <line id="mol1132:Bond:8" class="event" x1="139.22" y1="144" x2="118.43" y2="132" stroke-width="8" opacity="0" />
  <line id="mol1132:Bond:12" class="event" x1="97.65" y1="96" x2="97.65" y2="72" stroke-width="8" opacity="0" />
  <line id="mol1132:Bond:0" class="event" x1="139.22" y1="96" x2="160" y2="108" stroke-width="8" opacity="0" />
  <line id="mol1132:Bond:1" class="event" x1="160" y1="108" x2="180.78" y2="96" stroke-width="8" opacity="0" />
  <line id="mol1132:Bond:2" class="event" x1="180.78" y1="96" x2="201.57" y2="108" stroke-width="8" opacity="0" />
  <line id="mol1132:Bond:3" class="event" x1="201.57" y1="108" x2="222.35" y2="96" stroke-width="8" opacity="0" />
  <line id="mol1132:Bond:5" class="event" x1="222.35" y1="96" x2="222.35" y2="72" stroke-width="8" opacity="0" />
  <line id="mol1132:Bond:6" class="event" x1="160" y1="108" x2="160" y2="132" stroke-width="8" opacity="0" />
  <line id="mol1132:Bond:7" class="event" x1="160" y1="132" x2="139.22" y2="144" stroke-width="8" opacity="0" />
  <line id="mol1132:Bond:9" class="event" x1="139.22" y1="144" x2="139.22" y2="168" stroke-width="8" opacity="0" />
  <line id="mol1132:Bond:10" class="event" x1="139.22" y1="96" x2="118.43" y2="108" stroke-width="8" opacity="0" />
  <line id="mol1132:Bond:11" class="event" x1="118.43" y1="108" x2="97.65" y2="96" stroke-width="8" opacity="0" />
  <line id="mol1132:Bond:13" class="event" x1="97.65" y1="96" x2="76.86" y2="108" stroke-width="8" opacity="0" />
  <circle id="mol1132:Atom:0" class="event" cx="139.22" cy="96" r="8" opacity="0" />
  <circle id="mol1132:Atom:1" class="event" cx="160" cy="108" r="8" opacity="0" />
  <circle id="mol1132:Atom:2" class="event" cx="180.78" cy="96" r="8" opacity="0" />
  <circle id="mol1132:Atom:3" class="event" cx="201.57" cy="108" r="8" opacity="0" />
  <circle id="mol1132:Atom:4" class="event" cx="222.35" cy="96" r="8" opacity="0" />
  <circle id="mol1132:Atom:5" class="event" cx="243.14" cy="108" r="8" opacity="0" />
  <circle id="mol1132:Atom:6" class="event" cx="222.35" cy="72" r="8" opacity="0" />
  <circle id="mol1132:Atom:7" class="event" cx="160" cy="132" r="8" opacity="0" />
  <circle id="mol1132:Atom:8" class="event" cx="139.22" cy="144" r="8" opacity="0" />
  <circle id="mol1132:Atom:9" class="event" cx="118.43" cy="132" r="8" opacity="0" />
  <circle id="mol1132:Atom:10" class="event" cx="139.22" cy="168" r="8" opacity="0" />
  <circle id="mol1132:Atom:11" class="event" cx="118.43" cy="108" r="8" opacity="0" />
  <circle id="mol1132:Atom:12" class="event" cx="97.65" cy="96" r="8" opacity="0" />
  <circle id="mol1132:Atom:13" class="event" cx="97.65" cy="72" r="8" opacity="0" />
  <circle id="mol1132:Atom:14" class="event" cx="76.86" cy="108" r="8" opacity="0" />
</svg>