<svg id="mol1196" xmlns="http://www.w3.org/2000/svg" version="1.1" width="320px" height="240px" viewBox="0 0 320 240" role="img"><title>5-[3-[(1S)-1-(2-hydroxyethylamino)-2,3-dihydro-1H-inden-4-yl]-1,2,4-oxadiazol-5-yl]-2-propan-2-yloxybenzonitrile</title>
  <style> #mol1196 text {font-family: sans-serif;} #mol1196 { pointer-events:none; } #mol1196 .event  { pointer-events:all; } #mol1196 line { stroke-linecap:round; } #mol1196 polygon { stroke-linejoin:round; } </style>
  <text x="118.98" y="205.41" stroke="none" font-size="12" fill="rgb(160,0,0)">this enantiomer</text>
  <text x="272.01" y="118.37" stroke="none" font-size="14" fill="rgb(255,13,13)">O</text>
  <text x="166.9" y="144.67" stroke="none" font-size="14" fill="rgb(48,80,248)">N</text>
  <text x="159.05" y="181.62" stroke="none" font-size="14" fill="rgb(48,80,248)">N</text>
  <text x="181.87" y="179.18" stroke="none" font-size="14" fill="rgb(255,13,13)">O</text>
  <text x="93.29" y="108.51" stroke="none" font-size="9" fill="rgb(160,0,0)">S</text>
  <text x="92.37" y="97.22" stroke="none" font-size="9" fill="rgb(160,0,0)">abs</text>
  <text x="74.02" y="93.5" stroke="none" font-size="14" fill="rgb(48,80,248)">N</text>
  <text x="74.02" y="79.5" stroke="none" font-size="14" fill="rgb(48,80,248)">H</text>
  <text x="12.99" y="105.17" stroke="none" font-size="14" fill="rgb(255,13,13)">O</text>
  <text x="2.88" y="105.17" stroke="none" font-size="14" fill="rgb(255,13,13)">H</text>
  <text x="237.08" y="67.72" stroke="none" font-size="14" fill="rgb(48,80,248)">N</text>
  <line x1="256.14" y1="123.2" x2="237.25" y2="109.48" stroke="currentColor" stroke-width="1.4" />
  <line x1="252.06" y1="124.57" x2="237.21" y2="113.77" stroke="currentColor" stroke-width="1.4" />
  <line x1="215.93" y1="118.97" x2="213.49" y2="142.18" stroke="currentColor" stroke-width="1.4" />
  <line x1="219.15" y1="121.81" x2="217.23" y2="140.07" stroke="currentColor" stroke-width="1.4" />
  <line x1="232.37" y1="155.9" x2="253.7" y2="146.41" stroke="currentColor" stroke-width="1.4" />
  <line x1="233.22" y1="151.69" x2="250" y2="144.22" stroke="currentColor" stroke-width="1.4" />
  <line x1="192.17" y1="151.68" x2="178.01" y2="143.5" stroke="currentColor" stroke-width="1.4" />
  <line x1="187.88" y1="153.24" x2="177.07" y2="147.01" stroke="currentColor" stroke-width="1.4" />
  <line x1="154.61" y1="155.63" x2="160.98" y2="169.95" stroke="currentColor" stroke-width="1.4" />
  <line x1="159" y1="156.88" x2="164.18" y2="168.53" stroke="currentColor" stroke-width="1.4" />
  <line x1="131.77" y1="150.77" x2="124.56" y2="128.57" stroke="currentColor" stroke-width="1.4" />
  <line x1="127.67" y1="149.49" x2="122" y2="132.02" stroke="currentColor" stroke-width="1.4" />
  <line x1="101.73" y1="123.72" x2="86.11" y2="141.07" stroke="currentColor" stroke-width="1.4" />
  <line x1="102.67" y1="127.91" x2="90.38" y2="141.56" stroke="currentColor" stroke-width="1.4" />
  <line x1="93.32" y1="163.27" x2="116.16" y2="168.12" stroke="currentColor" stroke-width="1.4" />
  <line x1="96.49" y1="160.36" x2="114.45" y2="164.18" stroke="currentColor" stroke-width="1.4" />
  <line x1="317.67" y1="117.93" x2="296.34" y2="127.42" stroke="currentColor" stroke-width="1.4" />
  <line x1="296.34" y1="127.42" x2="293.9" y2="150.64" stroke="currentColor" stroke-width="1.4" />
  <line x1="296.34" y1="127.42" x2="283.91" y2="118.39" stroke="currentColor" stroke-width="1.4" />
  <line x1="271.01" y1="116.57" x2="256.14" y2="123.2" stroke="currentColor" stroke-width="1.4" />
  <line x1="237.25" y1="109.48" x2="215.93" y2="118.97" stroke="currentColor" stroke-width="1.4" />
  <line x1="213.49" y1="142.18" x2="232.37" y2="155.9" stroke="currentColor" stroke-width="1.4" />
  <line x1="256.14" y1="123.2" x2="253.7" y2="146.41" stroke="currentColor" stroke-width="1.4" />
  <line x1="213.49" y1="142.18" x2="192.17" y2="151.68" stroke="currentColor" stroke-width="1.4" />
  <line x1="165.9" y1="145.46" x2="154.61" y2="155.63" stroke="currentColor" stroke-width="1.4" />
  <line x1="170.15" y1="176.31" x2="180.87" y2="175.19" stroke="currentColor" stroke-width="1.4" />
  <line x1="192.17" y1="151.68" x2="188.8" y2="167.51" stroke="currentColor" stroke-width="1.4" />
  <line x1="154.61" y1="155.63" x2="131.77" y2="150.77" stroke="currentColor" stroke-width="1.4" />
  <line x1="124.56" y1="128.57" x2="136.23" y2="108.36" stroke="currentColor" stroke-width="1.4" />
  <line x1="136.23" y1="108.36" x2="120.61" y2="91.01" stroke="currentColor" stroke-width="1.4" />
  <line x1="120.61" y1="91.01" x2="99.29" y2="100.51" stroke="currentColor" stroke-width="1.4" />
  <line x1="99.29" y1="100.51" x2="101.73" y2="123.72" stroke="currentColor" stroke-width="1.4" />
  <line x1="124.56" y1="128.57" x2="101.73" y2="123.72" stroke="currentColor" stroke-width="1.4" />
  <line x1="86.11" y1="141.07" x2="93.32" y2="163.27" stroke="currentColor" stroke-width="1.4" />
  <line x1="131.77" y1="150.77" x2="116.16" y2="168.12" stroke="currentColor" stroke-width="1.4" />
  <polygon points="99,101 93,96 92,97 " fill="rgb(160,0,0)" stroke="rgb(160,0,0)" stroke-width="1.4" />
  <polygon points="92,97 93,96 86,91 84,94 " fill="rgb(160,0,0)" stroke="rgb(160,0,0)" stroke-width="1.4" />
  <line x1="73.02" y1="92.33" x2="58.86" y2="100.51" stroke="currentColor" stroke-width="1.4" />
  <line x1="58.86" y1="100.51" x2="38.65" y2="88.84" stroke="currentColor" stroke-width="1.4" />
  <line x1="38.65" y1="88.84" x2="24.88" y2="96.79" stroke="currentColor" stroke-width="1.4" />
  <line x1="237.25" y1="109.48" x2="239.69" y2="86.26" stroke="currentColor" stroke-width="1.4" />
  <line x1="239.69" y1="86.26" x2="241.4" y2="70.05" stroke="currentColor" stroke-width="1.4" />
  <line x1="243.17" y1="86.63" x2="244.88" y2="70.42" stroke="currentColor" stroke-width="1.4" />
  <line x1="236.21" y1="85.9" x2="237.91" y2="69.68" stroke="currentColor" stroke-width="1.4" />
  <line id="mol1196:Bond:4" class="event" x1="256.14" y1="123.2" x2="237.25" y2="109.48" stroke-width="8" opacity="0" />
  <line id="mol1196:Bond:6" class="event" x1="215.93" y1="118.97" x2="213.49" y2="142.18" stroke-width="8" opacity="0" />
  <line id="mol1196:Bond:8" class="event" x1="232.37" y1="155.9" x2="253.7" y2="146.41" stroke-width="8" opacity="0" />
  <line id="mol1196:Bond:11" class="event" x1="192.17" y1="151.68" x2="171.95" y2="140.01" stroke-width="8" opacity="0" />
  <line id="mol1196:Bond:13" class="event" x1="154.61" y1="155.63" x2="164.1" y2="176.95" stroke-width="8" opacity="0" />
  <line id="mol1196:Bond:17" class="event" x1="131.77" y1="150.77" x2="124.56" y2="128.57" stroke-width="8" opacity="0" />
  <line id="mol1196:Bond:23" class="event" x1="101.73" y1="123.72" x2="86.11" y2="141.07" stroke-width="8" opacity="0" />
  <line id="mol1196:Bond:25" class="event" x1="93.32" y1="163.27" x2="116.16" y2="168.12" stroke-width="8" opacity="0" />
  <line id="mol1196:Bond:0" class="event" x1="317.67" y1="117.93" x2="296.34" y2="127.42" stroke-width="8" opacity="0" />
  <line id="mol1196:Bond:1" class="event" x1="296.34" y1="127.42" x2="293.9" y2="150.64" stroke-width="8" opacity="0" />
  <line id="mol1196:Bond:2" class="event" x1="296.34" y1="127.42" x2="277.46" y2="113.7" stroke-width="8" opacity="0" />
  <line id="mol1196:Bond:3" class="event" x1="277.46" y1="113.7" x2="256.14" y2="123.2" stroke-width="8" opacity="0" />
  <line id="mol1196:Bond:5" class="event" x1="237.25" y1="109.48" x2="215.93" y2="118.97" stroke-width="8" opacity="0" />
  <line id="mol1196:Bond:7" class="event" x1="213.49" y1="142.18" x2="232.37" y2="155.9" stroke-width="8" opacity="0" />
  <line id="mol1196:Bond:9" class="event" x1="256.14" y1="123.2" x2="253.7" y2="146.41" stroke-width="8" opacity="0" />
  <line id="mol1196:Bond:10" class="event" x1="213.49" y1="142.18" x2="192.17" y2="151.68" stroke-width="8" opacity="0" />
  <line id="mol1196:Bond:12" class="event" x1="171.95" y1="140.01" x2="154.61" y2="155.63" stroke-width="8" opacity="0" />
  <line id="mol1196:Bond:14" class="event" x1="164.1" y1="176.95" x2="187.31" y2="174.51" stroke-width="8" opacity="0" />
  <line id="mol1196:Bond:15" class="event" x1="192.17" y1="151.68" x2="187.31" y2="174.51" stroke-width="8" opacity="0" />
  <line id="mol1196:Bond:16" class="event" x1="154.61" y1="155.63" x2="131.77" y2="150.77" stroke-width="8" opacity="0" />
  <line id="mol1196:Bond:18" class="event" x1="124.56" y1="128.57" x2="136.23" y2="108.36" stroke-width="8" opacity="0" />
  <line id="mol1196:Bond:19" class="event" x1="136.23" y1="108.36" x2="120.61" y2="91.01" stroke-width="8" opacity="0" />
  <line id="mol1196:Bond:20" class="event" x1="120.61" y1="91.01" x2="99.29" y2="100.51" stroke-width="8" opacity="0" />
  <line id="mol1196:Bond:21" class="event" x1="99.29" y1="100.51" x2="101.73" y2="123.72" stroke-width="8" opacity="0" />
  <line id="mol1196:Bond:22" class="event" x1="124.56" y1="128.57" x2="101.73" y2="123.72" stroke-width="8" opacity="0" />
  <line id="mol1196:Bond:24" class="event" x1="86.11" y1="141.07" x2="93.32" y2="163.27" stroke-width="8" opacity="0" />
  <line id="mol1196:Bond:26" class="event" x1="131.77" y1="150.77" x2="116.16" y2="168.12" stroke-width="8" opacity="0" />
  <line id="mol1196:Bond:27" class="event" x1="99.29" y1="100.51" x2="79.08" y2="88.84" stroke-width="8" opacity="0" />
  <line id="mol1196:Bond:28" class="event" x1="79.08" y1="88.84" x2="58.86" y2="100.51" stroke-width="8" opacity="0" />
  <line id="mol1196:Bond:29" class="event" x1="58.86" y1="100.51" x2="38.65" y2="88.84" stroke-width="8" opacity="0" />
  <line id="mol1196:Bond:30" class="event" x1="38.65" y1="88.84" x2="18.43" y2="100.51" stroke-width="8" opacity="0" />
  <line id="mol1196:Bond:31" class="event" x1="237.25" y1="109.48" x2="239.69" y2="86.26" stroke-width="8" opacity="0" />
  <line id="mol1196:Bond:32" class="event" x1="239.69" y1="86.26" x2="242.13" y2="63.05" stroke-width="8" opacity="0" />
  <circle id="mol1196:Atom:0" class="event" cx="317.67" cy="117.93" r="8" opacity="0" />
  <circle id="mol1196:Atom:1" class="event" cx="296.34" cy="127.42" r="8" opacity="0" />
  <circle id="mol1196:Atom:2" class="event" cx="293.9" cy="150.64" r="8" opacity="0" />
  <circle id="mol1196:Atom:3" class="event" cx="277.46" cy="113.7" r="8" opacity="0" />
  <circle id="mol1196:Atom:4" class="event" cx="256.14" cy="123.2" r="8" opacity="0" />
  <circle id="mol1196:Atom:5" class="event" cx="237.25" cy="109.48" r="8" opacity="0" />
  <circle id="mol1196:Atom:6" class="event" cx="215.93" cy="118.97" r="8" opacity="0" />
  <circle id="mol1196:Atom:7" class="event" cx="213.49" cy="142.18" r="8" opacity="0" />
  <circle id="mol1196:Atom:8" class="event" cx="232.37" cy="155.9" r="8" opacity="0" />
  <circle id="mol1196:Atom:9" class="event" cx="253.7" cy="146.41" r="8" opacity="0" />
  <circle id="mol1196:Atom:10" class="event" cx="192.17" cy="151.68" r="8" opacity="0" />
  <circle id="mol1196:Atom:11" class="event" cx="171.95" cy="140.01" r="8" opacity="0" />
  <circle id="mol1196:Atom:12" class="event" cx="154.61" cy="155.63" r="8" opacity="0" />
  <circle id="mol1196:Atom:13" class="event" cx="164.1" cy="176.95" r="8" opacity="0" />
  <circle id="mol1196:Atom:14" class="event" cx="187.31" cy="174.51" r="8" opacity="0" />
  <circle id="mol1196:Atom:15" class="event" cx="131.77" cy="150.77" r="8" opacity="0" />
  <circle id="mol1196:Atom:16" class="event" cx="124.56" cy="128.57" r="8" opacity="0" />
  <circle id="mol1196:Atom:17" class="event" cx="136.23" cy="108.36" r="8" opacity="0" />
  <circle id="mol1196:Atom:18" class="event" cx="120.61" cy="91.01" r="8" opacity="0" />
  <circle id="mol1196:Atom:19" class="event" cx="99.29" cy="100.51" r="8" opacity="0" />
  <circle id="mol1196:Atom:20" class="event" cx="101.73" cy="123.72" r="8" opacity="0" />
  <circle id="mol1196:Atom:21" class="event" cx="86.11" cy="141.07" r="8" opacity="0" />
  <circle id="mol1196:Atom:22" class="event" cx="93.32" cy="163.27" r="8" opacity="0" />
  <circle id="mol1196:Atom:23" class="event" cx="116.16" cy="168.12" r="8" opacity="0" />
  <circle id="mol1196:Atom:24" class="event" cx="79.08" cy="88.84" r="8" opacity="0" />
  <circle id="mol1196:Atom:25" class="event" cx="58.86" cy="100.51" r="8" opacity="0" />
  <circle id="mol1196:Atom:26" class="event" cx="38.65" cy="88.84" r="8" opacity="0" />
  <circle id="mol1196:Atom:27" class="event" cx="18.43" cy="100.51" r="8" opacity="0" />
  <circle id="mol1196:Atom:28" class="event" cx="239.69" cy="86.26" r="8" opacity="0" />
  <circle id="mol1196:Atom:29" class="event" cx="242.13" cy="63.05" r="8" opacity="0" />
</svg>