<svg id="mol1282" xmlns="http://www.w3.org/2000/svg" version="1.1" width="320px" height="240px" viewBox="0 0 320 240" role="img"><title>1-hydroxy-4-methyl-6-(2,4,4-trimethylpentyl)pyridin-2-one</title>
  <style> #mol1282 text {font-family: sans-serif;} #mol1282 { pointer-events:none; } #mol1282 .event  { pointer-events:all; } #mol1282 line { stroke-linecap:round; } #mol1282 polygon { stroke-linejoin:round; } </style>
  <text x="117.21" y="190.15" stroke="none" font-size="12" fill="rgb(160,0,0)">unknown chirality</text>
  <text x="237.69" y="100.67" stroke="none" font-size="14" fill="rgb(255,13,13)">O</text>
  <text x="196.52" y="100.67" stroke="none" font-size="14" fill="rgb(48,80,248)">N</text>
  <text x="134.21" y="116" stroke="none" font-size="9" fill="rgb(160,0,0)">?</text>
  <text x="196.12" y="76.67" stroke="none" font-size="14" fill="rgb(255,13,13)">O</text>
  <text x="207.02" y="76.67" stroke="none" font-size="14" fill="rgb(255,13,13)">H</text>
  <line x1="201.57" y1="144" x2="222.35" y2="132" stroke="currentColor" stroke-width="1.44" />
  <line x1="201.99" y1="139.6" x2="218.34" y2="130.16" stroke="currentColor" stroke-width="1.44" />
  <line x1="222.35" y1="110.08" x2="237.59" y2="101.28" stroke="currentColor" stroke-width="1.44" />
  <line x1="220.55" y1="106.96" x2="235.79" y2="98.16" stroke="currentColor" stroke-width="1.44" />
  <line x1="180.78" y1="108" x2="180.78" y2="132" stroke="currentColor" stroke-width="1.44" />
  <line x1="184.38" y1="110.56" x2="184.38" y2="129.44" stroke="currentColor" stroke-width="1.44" />
  <line x1="201.57" y1="168" x2="201.57" y2="144" stroke="currentColor" stroke-width="1.44" />
  <line x1="222.35" y1="132" x2="222.35" y2="108" stroke="currentColor" stroke-width="1.44" />
  <line x1="222.35" y1="108" x2="207.62" y2="99.5" stroke="currentColor" stroke-width="1.44" />
  <line x1="195.52" y1="99.5" x2="180.78" y2="108" stroke="currentColor" stroke-width="1.44" />
  <line x1="201.57" y1="144" x2="180.78" y2="132" stroke="currentColor" stroke-width="1.44" />
  <line x1="180.78" y1="108" x2="160" y2="96" stroke="currentColor" stroke-width="1.44" />
  <line x1="160" y1="96" x2="139.22" y2="108" stroke="currentColor" stroke-width="1.44" />
  <line x1="139.22" y1="108" x2="139.22" y2="132" stroke="currentColor" stroke-width="1.44" />
  <line x1="139.22" y1="108" x2="118.43" y2="96" stroke="currentColor" stroke-width="1.44" />
  <line x1="118.43" y1="96" x2="97.65" y2="108" stroke="currentColor" stroke-width="1.44" />
  <line x1="97.65" y1="108" x2="109.65" y2="128.78" stroke="currentColor" stroke-width="1.44" />
  <line x1="97.65" y1="108" x2="76.86" y2="120" stroke="currentColor" stroke-width="1.44" />
  <line x1="97.65" y1="108" x2="85.65" y2="87.22" stroke="currentColor" stroke-width="1.44" />
  <line x1="201.57" y1="89" x2="201.57" y2="79" stroke="currentColor" stroke-width="1.44" />
  <line id="mol1282:Bond:1" class="event" x1="201.57" y1="144" x2="222.35" y2="132" stroke-width="8" opacity="0" />
  <line id="mol1282:Bond:3" class="event" x1="222.35" y1="108" x2="243.14" y2="96" stroke-width="8" opacity="0" />
  <line id="mol1282:Bond:6" class="event" x1="180.78" y1="108" x2="180.78" y2="132" stroke-width="8" opacity="0" />
  <line id="mol1282:Bond:0" class="event" x1="201.57" y1="168" x2="201.57" y2="144" stroke-width="8" opacity="0" />
  <line id="mol1282:Bond:2" class="event" x1="222.35" y1="132" x2="222.35" y2="108" stroke-width="8" opacity="0" />
  <line id="mol1282:Bond:4" class="event" x1="222.35" y1="108" x2="201.57" y2="96" stroke-width="8" opacity="0" />
  <line id="mol1282:Bond:5" class="event" x1="201.57" y1="96" x2="180.78" y2="108" stroke-width="8" opacity="0" />
  <line id="mol1282:Bond:7" class="event" x1="201.57" y1="144" x2="180.78" y2="132" stroke-width="8" opacity="0" />
  <line id="mol1282:Bond:8" class="event" x1="180.78" y1="108" x2="160" y2="96" stroke-width="8" opacity="0" />
  <line id="mol1282:Bond:9" class="event" x1="160" y1="96" x2="139.22" y2="108" stroke-width="8" opacity="0" />
  <line id="mol1282:Bond:10" class="event" x1="139.22" y1="108" x2="139.22" y2="132" stroke-width="8" opacity="0" />
  <line id="mol1282:Bond:11" class="event" x1="139.22" y1="108" x2="118.43" y2="96" stroke-width="8" opacity="0" />
  <line id="mol1282:Bond:12" class="event" x1="118.43" y1="96" x2="97.65" y2="108" stroke-width="8" opacity="0" />
  <line id="mol1282:Bond:13" class="event" x1="97.65" y1="108" x2="109.65" y2="128.78" stroke-width="8" opacity="0" />
  <line id="mol1282:Bond:14" class="event" x1="97.65" y1="108" x2="76.86" y2="120" stroke-width="8" opacity="0" />
  <line id="mol1282:Bond:15" class="event" x1="97.65" y1="108" x2="85.65" y2="87.22" stroke-width="8" opacity="0" />
  <line id="mol1282:Bond:16" class="event" x1="201.57" y1="96" x2="201.57" y2="72" stroke-width="8" opacity="0" />
  <circle id="mol1282:Atom:0" class="event" cx="201.57" cy="168" r="8" opacity="0" />
  <circle id="mol1282:Atom:1" class="event" cx="201.57" cy="144" r="8" opacity="0" />
  <circle id="mol1282:Atom:2" class="event" cx="222.35" cy="132" r="8" opacity="0" />
  <circle id="mol1282:Atom:3" class="event" cx="222.35" cy="108" r="8" opacity="0" />
  <circle id="mol1282:Atom:4" class="event" cx="243.14" cy="96" r="8" opacity="0" />
  <circle id="mol1282:Atom:5" class="event" cx="201.57" cy="96" r="8" opacity="0" />
  <circle id="mol1282:Atom:6" class="event" cx="180.78" cy="108" r="8" opacity="0" />
  <circle id="mol1282:Atom:7" class="event" cx="180.78" cy="132" r="8" opacity="0" />
  <circle id="mol1282:Atom:8" class="event" cx="160" cy="96" r="8" opacity="0" />
  <circle id="mol1282:Atom:9" class="event" cx="139.22" cy="108" r="8" opacity="0" />
  <circle id="mol1282:Atom:10" class="event" cx="139.22" cy="132" r="8" opacity="0" />
  <circle id="mol1282:Atom:11" class="event" cx="118.43" cy="96" r="8" opacity="0" />
  <circle id="mol1282:Atom:12" class="event" cx="97.65" cy="108" r="8" opacity="0" />
  <circle id="mol1282:Atom:13" class="event" cx="109.65" cy="128.78" r="8" opacity="0" />
  <circle id="mol1282:Atom:14" class="event" cx="76.86" cy="120" r="8" opacity="0" />
  <circle id="mol1282:Atom:15" class="event" cx="85.65" cy="87.22" r="8" opacity="0" />
  <circle id="mol1282:Atom:16" class="event" cx="201.57" cy="72" r="8" opacity="0" />
</svg>