<svg id="mol1350" xmlns="http://www.w3.org/2000/svg" version="1.1" width="320px" height="240px" viewBox="0 0 320 240" role="img"><title>1-hydroxypyridine-2-thione</title>
  <style> #mol1350 text {font-family: sans-serif;} #mol1350 { pointer-events:none; } #mol1350 .event  { pointer-events:all; } #mol1350 line { stroke-linecap:round; } #mol1350 polygon { stroke-linejoin:round; } </style>
  <text x="124.15" y="136.67" stroke="none" font-size="14" fill="rgb(205,205,38)">S</text>
  <text x="165.34" y="136.67" stroke="none" font-size="14" fill="rgb(48,80,248)">N</text>
  <text x="164.95" y="160.67" stroke="none" font-size="14" fill="rgb(255,13,13)">O</text>
  <text x="175.84" y="160.67" stroke="none" font-size="14" fill="rgb(255,13,13)">H</text>
  <line x1="170.39" y1="84" x2="149.61" y2="96" stroke="currentColor" stroke-width="1.44" />
  <line x1="169.97" y1="88.4" x2="153.63" y2="97.84" stroke="currentColor" stroke-width="1.44" />
  <line x1="149.61" y1="117.92" x2="133.59" y2="127.17" stroke="currentColor" stroke-width="1.44" />
  <line x1="151.41" y1="121.04" x2="135.39" y2="130.29" stroke="currentColor" stroke-width="1.44" />
  <line x1="191.18" y1="120" x2="191.18" y2="96" stroke="currentColor" stroke-width="1.44" />
  <line x1="187.58" y1="117.44" x2="187.58" y2="98.56" stroke="currentColor" stroke-width="1.44" />
  <line x1="149.61" y1="96" x2="149.61" y2="120" stroke="currentColor" stroke-width="1.44" />
  <line x1="149.61" y1="120" x2="164.34" y2="128.5" stroke="currentColor" stroke-width="1.44" />
  <line x1="176.45" y1="128.5" x2="191.18" y2="120" stroke="currentColor" stroke-width="1.44" />
  <line x1="170.39" y1="84" x2="191.18" y2="96" stroke="currentColor" stroke-width="1.44" />
  <line x1="170.39" y1="139" x2="170.39" y2="149" stroke="currentColor" stroke-width="1.44" />
  <line id="mol1350:Bond:0" class="event" x1="170.39" y1="84" x2="149.61" y2="96" stroke-width="8" opacity="0" />
  <line id="mol1350:Bond:2" class="event" x1="149.61" y1="120" x2="128.82" y2="132" stroke-width="8" opacity="0" />
  <line id="mol1350:Bond:5" class="event" x1="191.18" y1="120" x2="191.18" y2="96" stroke-width="8" opacity="0" />
  <line id="mol1350:Bond:1" class="event" x1="149.61" y1="96" x2="149.61" y2="120" stroke-width="8" opacity="0" />
  <line id="mol1350:Bond:3" class="event" x1="149.61" y1="120" x2="170.39" y2="132" stroke-width="8" opacity="0" />
  <line id="mol1350:Bond:4" class="event" x1="170.39" y1="132" x2="191.18" y2="120" stroke-width="8" opacity="0" />
  <line id="mol1350:Bond:6" class="event" x1="170.39" y1="84" x2="191.18" y2="96" stroke-width="8" opacity="0" />
  <line id="mol1350:Bond:7" class="event" x1="170.39" y1="132" x2="170.39" y2="156" stroke-width="8" opacity="0" />
  <circle id="mol1350:Atom:0" class="event" cx="170.39" cy="84" r="8" opacity="0" />
  <circle id="mol1350:Atom:1" class="event" cx="149.61" cy="96" r="8" opacity="0" />
  <circle id="mol1350:Atom:2" class="event" cx="149.61" cy="120" r="8" opacity="0" />
  <circle id="mol1350:Atom:3" class="event" cx="128.82" cy="132" r="8" opacity="0" />
  <circle id="mol1350:Atom:4" class="event" cx="170.39" cy="132" r="8" opacity="0" />
  <circle id="mol1350:Atom:5" class="event" cx="191.18" cy="120" r="8" opacity="0" />
  <circle id="mol1350:Atom:6" class="event" cx="191.18" cy="96" r="8" opacity="0" />
  <circle id="mol1350:Atom:7" class="event" cx="170.39" cy="156" r="8" opacity="0" />
</svg>