<svg id="mol1506" xmlns="http://www.w3.org/2000/svg" version="1.1" width="320px" height="240px" viewBox="0 0 320 240" role="img"><title>1-methyl-1-nitroso-3-[(2S,3R,4R,5S,6R)-2,4,5-trihydroxy-6-(hydroxymethyl)oxan-3-yl]urea</title>
  <style> #mol1506 text {font-family: sans-serif;} #mol1506 { pointer-events:none; } #mol1506 .event  { pointer-events:all; } #mol1506 line { stroke-linecap:round; } #mol1506 polygon { stroke-linejoin:round; } </style>
  <text x="124.04" y="197.15" stroke="none" font-size="12" fill="rgb(160,0,0)">this enantiomer</text>
  <text x="113.38" y="148.67" stroke="none" font-size="14" fill="rgb(48,80,248)">N</text>
  <text x="133.77" y="112.67" stroke="none" font-size="14" fill="rgb(255,13,13)">O</text>
  <text x="154.95" y="148.67" stroke="none" font-size="14" fill="rgb(48,80,248)">N</text>
  <text x="154.95" y="162.67" stroke="none" font-size="14" fill="rgb(48,80,248)">H</text>
  <text x="174.29" y="140" stroke="none" font-size="9" fill="rgb(160,0,0)">R</text>
  <text x="178.99" y="131.85" stroke="none" font-size="9" fill="rgb(160,0,0)">abs</text>
  <text x="195.07" y="152" stroke="none" font-size="9" fill="rgb(160,0,0)">R</text>
  <text x="194.32" y="140.7" stroke="none" font-size="9" fill="rgb(160,0,0)">abs</text>
  <text x="216.35" y="140" stroke="none" font-size="9" fill="rgb(160,0,0)">S</text>
  <text x="220.56" y="131.85" stroke="none" font-size="9" fill="rgb(160,0,0)">abs</text>
  <text x="215.86" y="116" stroke="none" font-size="9" fill="rgb(160,0,0)">R</text>
  <text x="215.1" y="104.7" stroke="none" font-size="9" fill="rgb(160,0,0)">abs</text>
  <text x="196.12" y="100.67" stroke="none" font-size="14" fill="rgb(255,13,13)">O</text>
  <text x="174.78" y="116" stroke="none" font-size="9" fill="rgb(160,0,0)">S</text>
  <text x="173.53" y="104.7" stroke="none" font-size="9" fill="rgb(160,0,0)">abs</text>
  <text x="154.55" y="100.67" stroke="none" font-size="14" fill="rgb(255,13,13)">O</text>
  <text x="144.45" y="100.67" stroke="none" font-size="14" fill="rgb(255,13,13)">H</text>
  <text x="237.69" y="76.67" stroke="none" font-size="14" fill="rgb(255,13,13)">O</text>
  <text x="248.58" y="76.67" stroke="none" font-size="14" fill="rgb(255,13,13)">H</text>
  <text x="237.69" y="148.67" stroke="none" font-size="14" fill="rgb(255,13,13)">O</text>
  <text x="248.58" y="148.67" stroke="none" font-size="14" fill="rgb(255,13,13)">H</text>
  <text x="196.12" y="172.67" stroke="none" font-size="14" fill="rgb(255,13,13)">O</text>
  <text x="207.02" y="172.67" stroke="none" font-size="14" fill="rgb(255,13,13)">H</text>
  <text x="92.59" y="136.67" stroke="none" font-size="14" fill="rgb(48,80,248)">N</text>
  <text x="71.42" y="148.67" stroke="none" font-size="14" fill="rgb(255,13,13)">O</text>
  <line x1="141.02" y1="133.04" x2="141.02" y2="115" stroke="currentColor" stroke-width="1.44" />
  <line x1="137.42" y1="133.04" x2="137.42" y2="115" stroke="currentColor" stroke-width="1.44" />
  <line x1="90.69" y1="133.94" x2="82.41" y2="138.72" stroke="currentColor" stroke-width="1.44" />
  <line x1="92.49" y1="137.05" x2="84.21" y2="141.84" stroke="currentColor" stroke-width="1.44" />
  <line x1="118.43" y1="168" x2="118.43" y2="151" stroke="currentColor" stroke-width="1.44" />
  <line x1="124.48" y1="140.5" x2="139.22" y2="132" stroke="currentColor" stroke-width="1.44" />
  <line x1="139.22" y1="132" x2="153.95" y2="140.5" stroke="currentColor" stroke-width="1.44" />
  <polygon points="181,132 173,135 174,137 " fill="rgb(160,0,0)" stroke="rgb(160,0,0)" stroke-width="1.44" />
  <polygon points="174,137 173,135 165,139 167,142 " fill="rgb(160,0,0)" stroke="rgb(160,0,0)" stroke-width="1.44" />
  <line x1="180.78" y1="132" x2="201.57" y2="144" stroke="currentColor" stroke-width="1.44" />
  <line x1="201.57" y1="144" x2="222.35" y2="132" stroke="currentColor" stroke-width="1.44" />
  <line x1="222.35" y1="132" x2="222.35" y2="108" stroke="currentColor" stroke-width="1.44" />
  <line x1="222.35" y1="108" x2="208.02" y2="99.72" stroke="currentColor" stroke-width="1.44" />
  <line x1="195.12" y1="99.72" x2="180.78" y2="108" stroke="currentColor" stroke-width="1.44" />
  <line x1="180.78" y1="132" x2="180.78" y2="108" stroke="currentColor" stroke-width="1.44" />
  <polygon points="181,108 174,103 173,105 " fill="rgb(160,0,0)" stroke="rgb(160,0,0)" stroke-width="1.44" />
  <polygon points="173,105 174,103 167,98 166,101 " fill="rgb(160,0,0)" stroke="rgb(160,0,0)" stroke-width="1.44" />
  <line x1="224.99" y1="106.91" x2="224.61" y2="106.26" stroke="rgb(160,0,0)" stroke-width="1.44" />
  <line x1="227.62" y1="105.83" x2="226.87" y2="104.53" stroke="rgb(160,0,0)" stroke-width="1.44" />
  <line x1="230.25" y1="104.74" x2="229.13" y2="102.79" stroke="rgb(160,0,0)" stroke-width="1.44" />
  <line x1="232.88" y1="103.65" x2="231.38" y2="101.05" stroke="rgb(160,0,0)" stroke-width="1.44" />
  <line x1="235.52" y1="102.56" x2="233.64" y2="99.32" stroke="rgb(160,0,0)" stroke-width="1.44" />
  <line x1="238.15" y1="101.48" x2="235.9" y2="97.58" stroke="rgb(160,0,0)" stroke-width="1.44" />
  <line x1="240.78" y1="100.39" x2="238.16" y2="95.84" stroke="rgb(160,0,0)" stroke-width="1.44" />
  <line x1="243.42" y1="99.3" x2="240.42" y2="94.11" stroke="rgb(160,0,0)" stroke-width="1.44" />
  <line x1="243.14" y1="96" x2="243.14" y2="79" stroke="currentColor" stroke-width="1.44" />
  <polygon points="222,132 229,137 230,135 " fill="rgb(160,0,0)" stroke="rgb(160,0,0)" stroke-width="1.44" />
  <polygon points="230,135 229,137 236,142 238,139 " fill="rgb(160,0,0)" stroke="rgb(160,0,0)" stroke-width="1.44" />
  <line x1="201.19" y1="146.82" x2="201.94" y2="146.82" stroke="rgb(160,0,0)" stroke-width="1.44" />
  <line x1="200.82" y1="149.65" x2="202.32" y2="149.65" stroke="rgb(160,0,0)" stroke-width="1.44" />
  <line x1="200.44" y1="152.47" x2="202.69" y2="152.47" stroke="rgb(160,0,0)" stroke-width="1.44" />
  <line x1="200.07" y1="155.29" x2="203.07" y2="155.29" stroke="rgb(160,0,0)" stroke-width="1.44" />
  <line x1="199.69" y1="158.12" x2="203.44" y2="158.12" stroke="rgb(160,0,0)" stroke-width="1.44" />
  <line x1="199.32" y1="160.94" x2="203.82" y2="160.94" stroke="rgb(160,0,0)" stroke-width="1.44" />
  <line x1="112.38" y1="140.5" x2="103.7" y2="135.5" stroke="currentColor" stroke-width="1.44" />
  <line id="mol1506:Bond:2" class="event" x1="139.22" y1="132" x2="139.22" y2="108" stroke-width="8" opacity="0" />
  <line id="mol1506:Bond:17" class="event" x1="97.65" y1="132" x2="76.86" y2="144" stroke-width="8" opacity="0" />
  <line id="mol1506:Bond:0" class="event" x1="118.43" y1="168" x2="118.43" y2="144" stroke-width="8" opacity="0" />
  <line id="mol1506:Bond:1" class="event" x1="118.43" y1="144" x2="139.22" y2="132" stroke-width="8" opacity="0" />
  <line id="mol1506:Bond:3" class="event" x1="139.22" y1="132" x2="160" y2="144" stroke-width="8" opacity="0" />
  <line id="mol1506:Bond:4" class="event" x1="180.78" y1="132" x2="160" y2="144" stroke-width="8" opacity="0" />
  <line id="mol1506:Bond:5" class="event" x1="180.78" y1="132" x2="201.57" y2="144" stroke-width="8" opacity="0" />
  <line id="mol1506:Bond:6" class="event" x1="201.57" y1="144" x2="222.35" y2="132" stroke-width="8" opacity="0" />
  <line id="mol1506:Bond:7" class="event" x1="222.35" y1="132" x2="222.35" y2="108" stroke-width="8" opacity="0" />
  <line id="mol1506:Bond:8" class="event" x1="222.35" y1="108" x2="201.57" y2="96" stroke-width="8" opacity="0" />
  <line id="mol1506:Bond:9" class="event" x1="201.57" y1="96" x2="180.78" y2="108" stroke-width="8" opacity="0" />
  <line id="mol1506:Bond:10" class="event" x1="180.78" y1="132" x2="180.78" y2="108" stroke-width="8" opacity="0" />
  <line id="mol1506:Bond:11" class="event" x1="180.78" y1="108" x2="160" y2="96" stroke-width="8" opacity="0" />
  <line id="mol1506:Bond:12" class="event" x1="222.35" y1="108" x2="243.14" y2="96" stroke-width="8" opacity="0" />
  <line id="mol1506:Bond:13" class="event" x1="243.14" y1="96" x2="243.14" y2="72" stroke-width="8" opacity="0" />
  <line id="mol1506:Bond:14" class="event" x1="222.35" y1="132" x2="243.14" y2="144" stroke-width="8" opacity="0" />
  <line id="mol1506:Bond:15" class="event" x1="201.57" y1="144" x2="201.57" y2="168" stroke-width="8" opacity="0" />
  <line id="mol1506:Bond:16" class="event" x1="118.43" y1="144" x2="97.65" y2="132" stroke-width="8" opacity="0" />
  <circle id="mol1506:Atom:0" class="event" cx="118.43" cy="168" r="8" opacity="0" />
  <circle id="mol1506:Atom:1" class="event" cx="118.43" cy="144" r="8" opacity="0" />
  <circle id="mol1506:Atom:2" class="event" cx="139.22" cy="132" r="8" opacity="0" />
  <circle id="mol1506:Atom:3" class="event" cx="139.22" cy="108" r="8" opacity="0" />
  <circle id="mol1506:Atom:4" class="event" cx="160" cy="144" r="8" opacity="0" />
  <circle id="mol1506:Atom:5" class="event" cx="180.78" cy="132" r="8" opacity="0" />
  <circle id="mol1506:Atom:6" class="event" cx="201.57" cy="144" r="8" opacity="0" />
  <circle id="mol1506:Atom:7" class="event" cx="222.35" cy="132" r="8" opacity="0" />
  <circle id="mol1506:Atom:8" class="event" cx="222.35" cy="108" r="8" opacity="0" />
  <circle id="mol1506:Atom:9" class="event" cx="201.57" cy="96" r="8" opacity="0" />
  <circle id="mol1506:Atom:10" class="event" cx="180.78" cy="108" r="8" opacity="0" />
  <circle id="mol1506:Atom:11" class="event" cx="160" cy="96" r="8" opacity="0" />
  <circle id="mol1506:Atom:12" class="event" cx="243.14" cy="96" r="8" opacity="0" />
  <circle id="mol1506:Atom:13" class="event" cx="243.14" cy="72" r="8" opacity="0" />
  <circle id="mol1506:Atom:14" class="event" cx="243.14" cy="144" r="8" opacity="0" />
  <circle id="mol1506:Atom:15" class="event" cx="201.57" cy="168" r="8" opacity="0" />
  <circle id="mol1506:Atom:16" class="event" cx="97.65" cy="132" r="8" opacity="0" />
  <circle id="mol1506:Atom:17" class="event" cx="76.86" cy="144" r="8" opacity="0" />
</svg>