<svg id="mol1621" xmlns="http://www.w3.org/2000/svg" version="1.1" width="320px" height="240px" viewBox="0 0 320 240" role="img"><title>3-[(3R,4R)-4-methyl-3-[methyl(7H-pyrrolo[2,3-d]pyrimidin-4-yl)amino]piperidin-1-yl]-3-oxopropanenitrile</title>
  <style> #mol1621 text {font-family: sans-serif;} #mol1621 { pointer-events:none; } #mol1621 .event  { pointer-events:all; } #mol1621 line { stroke-linecap:round; } #mol1621 polygon { stroke-linejoin:round; } </style>
  <text x="118.98" y="231.63" stroke="none" font-size="12" fill="rgb(160,0,0)">this enantiomer</text>
  <text x="174.29" y="103.01" stroke="none" font-size="9" fill="rgb(160,0,0)">R</text>
  <text x="178.99" y="94.86" stroke="none" font-size="9" fill="rgb(160,0,0)">abs</text>
  <text x="134.16" y="75.67" stroke="none" font-size="14" fill="rgb(48,80,248)">N</text>
  <text x="153.5" y="115.01" stroke="none" font-size="9" fill="rgb(160,0,0)">R</text>
  <text x="152.75" y="103.71" stroke="none" font-size="9" fill="rgb(160,0,0)">abs</text>
  <text x="154.95" y="135.67" stroke="none" font-size="14" fill="rgb(48,80,248)">N</text>
  <text x="196.52" y="135.67" stroke="none" font-size="14" fill="rgb(48,80,248)">N</text>
  <text x="217.3" y="171.67" stroke="none" font-size="14" fill="rgb(48,80,248)">N</text>
  <text x="191.53" y="207.15" stroke="none" font-size="14" fill="rgb(48,80,248)">N</text>
  <text x="201.63" y="207.15" stroke="none" font-size="14" fill="rgb(48,80,248)">H</text>
  <text x="112.98" y="39.67" stroke="none" font-size="14" fill="rgb(255,13,13)">O</text>
  <text x="92.59" y="123.67" stroke="none" font-size="14" fill="rgb(48,80,248)">N</text>
  <line x1="180.78" y1="143.01" x2="195.52" y2="134.5" stroke="currentColor" stroke-width="1.44" />
  <line x1="184.8" y1="144.85" x2="196.64" y2="138.01" stroke="currentColor" stroke-width="1.44" />
  <line x1="222.35" y1="143.01" x2="222.35" y2="160.01" stroke="currentColor" stroke-width="1.44" />
  <line x1="218.75" y1="145.57" x2="218.75" y2="160.01" stroke="currentColor" stroke-width="1.44" />
  <line x1="201.57" y1="179.01" x2="180.78" y2="167.01" stroke="currentColor" stroke-width="1.44" />
  <line x1="201.15" y1="174.61" x2="184.8" y2="165.17" stroke="currentColor" stroke-width="1.44" />
  <line x1="162.95" y1="183.07" x2="172.71" y2="204.99" stroke="currentColor" stroke-width="1.44" />
  <line x1="167.46" y1="184.36" x2="174.77" y2="200.77" stroke="currentColor" stroke-width="1.44" />
  <line x1="120.23" y1="60.05" x2="120.23" y2="42.01" stroke="currentColor" stroke-width="1.44" />
  <line x1="116.63" y1="60.05" x2="116.63" y2="42.01" stroke="currentColor" stroke-width="1.44" />
  <polygon points="181,95 191,102 192,100 " fill="rgb(160,0,0)" stroke="rgb(160,0,0)" stroke-width="1.44" />
  <polygon points="192,100 191,102 200,109 203,105 " fill="rgb(160,0,0)" stroke="rgb(160,0,0)" stroke-width="1.44" />
  <line x1="180.78" y1="95.01" x2="180.78" y2="71.01" stroke="currentColor" stroke-width="1.44" />
  <line x1="180.78" y1="71.01" x2="160" y2="59.01" stroke="currentColor" stroke-width="1.44" />
  <line x1="160" y1="59.01" x2="145.27" y2="67.51" stroke="currentColor" stroke-width="1.44" />
  <line x1="139.22" y1="78.01" x2="139.22" y2="95.01" stroke="currentColor" stroke-width="1.44" />
  <line x1="139.22" y1="95.01" x2="160" y2="107.01" stroke="currentColor" stroke-width="1.44" />
  <line x1="180.78" y1="95.01" x2="160" y2="107.01" stroke="currentColor" stroke-width="1.44" />
  <polygon points="160,107 159,116 161,116 " fill="rgb(160,0,0)" stroke="rgb(160,0,0)" stroke-width="1.44" />
  <polygon points="161,116 159,116 158,124 162,124 " fill="rgb(160,0,0)" stroke="rgb(160,0,0)" stroke-width="1.44" />
  <line x1="153.95" y1="134.5" x2="139.22" y2="143.01" stroke="currentColor" stroke-width="1.44" />
  <line x1="166.05" y1="134.5" x2="180.78" y2="143.01" stroke="currentColor" stroke-width="1.44" />
  <line x1="207.62" y1="134.5" x2="222.35" y2="143.01" stroke="currentColor" stroke-width="1.44" />
  <line x1="216.3" y1="170.5" x2="201.57" y2="179.01" stroke="currentColor" stroke-width="1.44" />
  <line x1="180.78" y1="143.01" x2="180.78" y2="167.01" stroke="currentColor" stroke-width="1.44" />
  <line x1="180.78" y1="167.01" x2="162.95" y2="183.07" stroke="currentColor" stroke-width="1.44" />
  <line x1="172.71" y1="204.99" x2="190.53" y2="203.12" stroke="currentColor" stroke-width="1.44" />
  <line x1="201.57" y1="179.01" x2="198.07" y2="195.48" stroke="currentColor" stroke-width="1.44" />
  <line x1="133.16" y1="67.51" x2="118.43" y2="59.01" stroke="currentColor" stroke-width="1.44" />
  <line x1="118.43" y1="59.01" x2="97.65" y2="71.01" stroke="currentColor" stroke-width="1.44" />
  <line x1="97.65" y1="71.01" x2="97.65" y2="95.01" stroke="currentColor" stroke-width="1.44" />
  <line x1="97.65" y1="95.01" x2="97.65" y2="112.01" stroke="currentColor" stroke-width="1.44" />
  <line x1="94.05" y1="95.01" x2="94.05" y2="112.01" stroke="currentColor" stroke-width="1.44" />
  <line x1="101.25" y1="95.01" x2="101.25" y2="112.01" stroke="currentColor" stroke-width="1.44" />
  <line id="mol1621:Bond:10" class="event" x1="180.78" y1="143.01" x2="201.57" y2="131.01" stroke-width="8" opacity="0" />
  <line id="mol1621:Bond:12" class="event" x1="222.35" y1="143.01" x2="222.35" y2="167.01" stroke-width="8" opacity="0" />
  <line id="mol1621:Bond:14" class="event" x1="201.57" y1="179.01" x2="180.78" y2="167.01" stroke-width="8" opacity="0" />
  <line id="mol1621:Bond:17" class="event" x1="162.95" y1="183.07" x2="172.71" y2="204.99" stroke-width="8" opacity="0" />
  <line id="mol1621:Bond:21" class="event" x1="118.43" y1="59.01" x2="118.43" y2="35.01" stroke-width="8" opacity="0" />
  <line id="mol1621:Bond:0" class="event" x1="180.78" y1="95.01" x2="201.57" y2="107.01" stroke-width="8" opacity="0" />
  <line id="mol1621:Bond:1" class="event" x1="180.78" y1="95.01" x2="180.78" y2="71.01" stroke-width="8" opacity="0" />
  <line id="mol1621:Bond:2" class="event" x1="180.78" y1="71.01" x2="160" y2="59.01" stroke-width="8" opacity="0" />
  <line id="mol1621:Bond:3" class="event" x1="160" y1="59.01" x2="139.22" y2="71.01" stroke-width="8" opacity="0" />
  <line id="mol1621:Bond:4" class="event" x1="139.22" y1="71.01" x2="139.22" y2="95.01" stroke-width="8" opacity="0" />
  <line id="mol1621:Bond:5" class="event" x1="139.22" y1="95.01" x2="160" y2="107.01" stroke-width="8" opacity="0" />
  <line id="mol1621:Bond:6" class="event" x1="180.78" y1="95.01" x2="160" y2="107.01" stroke-width="8" opacity="0" />
  <line id="mol1621:Bond:7" class="event" x1="160" y1="107.01" x2="160" y2="131.01" stroke-width="8" opacity="0" />
  <line id="mol1621:Bond:8" class="event" x1="160" y1="131.01" x2="139.22" y2="143.01" stroke-width="8" opacity="0" />
  <line id="mol1621:Bond:9" class="event" x1="160" y1="131.01" x2="180.78" y2="143.01" stroke-width="8" opacity="0" />
  <line id="mol1621:Bond:11" class="event" x1="201.57" y1="131.01" x2="222.35" y2="143.01" stroke-width="8" opacity="0" />
  <line id="mol1621:Bond:13" class="event" x1="222.35" y1="167.01" x2="201.57" y2="179.01" stroke-width="8" opacity="0" />
  <line id="mol1621:Bond:15" class="event" x1="180.78" y1="143.01" x2="180.78" y2="167.01" stroke-width="8" opacity="0" />
  <line id="mol1621:Bond:16" class="event" x1="180.78" y1="167.01" x2="162.95" y2="183.07" stroke-width="8" opacity="0" />
  <line id="mol1621:Bond:18" class="event" x1="172.71" y1="204.99" x2="196.58" y2="202.48" stroke-width="8" opacity="0" />
  <line id="mol1621:Bond:19" class="event" x1="201.57" y1="179.01" x2="196.58" y2="202.48" stroke-width="8" opacity="0" />
  <line id="mol1621:Bond:20" class="event" x1="139.22" y1="71.01" x2="118.43" y2="59.01" stroke-width="8" opacity="0" />
  <line id="mol1621:Bond:22" class="event" x1="118.43" y1="59.01" x2="97.65" y2="71.01" stroke-width="8" opacity="0" />
  <line id="mol1621:Bond:23" class="event" x1="97.65" y1="71.01" x2="97.65" y2="95.01" stroke-width="8" opacity="0" />
  <line id="mol1621:Bond:24" class="event" x1="97.65" y1="95.01" x2="97.65" y2="119.01" stroke-width="8" opacity="0" />
  <circle id="mol1621:Atom:0" class="event" cx="201.57" cy="107.01" r="8" opacity="0" />
  <circle id="mol1621:Atom:1" class="event" cx="180.78" cy="95.01" r="8" opacity="0" />
  <circle id="mol1621:Atom:2" class="event" cx="180.78" cy="71.01" r="8" opacity="0" />
  <circle id="mol1621:Atom:3" class="event" cx="160" cy="59.01" r="8" opacity="0" />
  <circle id="mol1621:Atom:4" class="event" cx="139.22" cy="71.01" r="8" opacity="0" />
  <circle id="mol1621:Atom:5" class="event" cx="139.22" cy="95.01" r="8" opacity="0" />
  <circle id="mol1621:Atom:6" class="event" cx="160" cy="107.01" r="8" opacity="0" />
  <circle id="mol1621:Atom:7" class="event" cx="160" cy="131.01" r="8" opacity="0" />
  <circle id="mol1621:Atom:8" class="event" cx="139.22" cy="143.01" r="8" opacity="0" />
  <circle id="mol1621:Atom:9" class="event" cx="180.78" cy="143.01" r="8" opacity="0" />
  <circle id="mol1621:Atom:10" class="event" cx="201.57" cy="131.01" r="8" opacity="0" />
  <circle id="mol1621:Atom:11" class="event" cx="222.35" cy="143.01" r="8" opacity="0" />
  <circle id="mol1621:Atom:12" class="event" cx="222.35" cy="167.01" r="8" opacity="0" />
  <circle id="mol1621:Atom:13" class="event" cx="201.57" cy="179.01" r="8" opacity="0" />
  <circle id="mol1621:Atom:14" class="event" cx="180.78" cy="167.01" r="8" opacity="0" />
  <circle id="mol1621:Atom:15" class="event" cx="162.95" cy="183.07" r="8" opacity="0" />
  <circle id="mol1621:Atom:16" class="event" cx="172.71" cy="204.99" r="8" opacity="0" />
  <circle id="mol1621:Atom:17" class="event" cx="196.58" cy="202.48" r="8" opacity="0" />
  <circle id="mol1621:Atom:18" class="event" cx="118.43" cy="59.01" r="8" opacity="0" />
  <circle id="mol1621:Atom:19" class="event" cx="118.43" cy="35.01" r="8" opacity="0" />
  <circle id="mol1621:Atom:20" class="event" cx="97.65" cy="71.01" r="8" opacity="0" />
  <circle id="mol1621:Atom:21" class="event" cx="97.65" cy="95.01" r="8" opacity="0" />
  <circle id="mol1621:Atom:22" class="event" cx="97.65" cy="119.01" r="8" opacity="0" />
</svg>